<?xml version="1.0" encoding="UTF-8" standalone="no"?>
<!DOCTYPE svg PUBLIC "-//W3C//DTD SVG 1.1//EN"
 "http://www.w3.org/Graphics/SVG/1.1/DTD/svg11.dtd">
<!-- Generated by graphviz version 2.36.0 (20140111.2315)
 -->
<!-- Title: source tree Pages: 1 -->
<svg width="576pt" height="716pt"
 viewBox="0.00 0.00 576.00 715.74" xmlns="http://www.w3.org/2000/svg" xmlns:xlink="http://www.w3.org/1999/xlink">
<g id="graph0" class="graph" transform="scale(0.193019 0.193019) rotate(0) translate(4 3704.13)">
<title>source tree</title>
<polygon fill="white" stroke="none" points="-4,4 -4,-3704.13 2980.16,-3704.13 2980.16,4 -4,4"/>
<!-- World.h -->
<g id="node1" class="node"><title>World.h</title>
<ellipse fill="none" stroke="black" cx="1227.25" cy="-1865.39" rx="40.0939" ry="18"/>
<text text-anchor="middle" x="1227.25" y="-1861.69" font-family="Times,serif" font-size="14.00">World.h</text>
</g>
<!-- Ray.h -->
<g id="node2" class="node"><title>Ray.h</title>
<ellipse fill="none" stroke="black" cx="1852.94" cy="-1426.4" rx="31.6951" ry="18"/>
<text text-anchor="middle" x="1852.94" y="-1422.7" font-family="Times,serif" font-size="14.00">Ray.h</text>
</g>
<!-- World.h&#45;&gt;Ray.h -->
<g id="edge1" class="edge"><title>World.h&#45;&gt;Ray.h</title>
<path fill="none" stroke="black" d="M1249.15,-1850.03C1343.82,-1783.6 1717.88,-1521.15 1824.46,-1446.38"/>
<polygon fill="black" stroke="black" points="1826.62,-1449.13 1832.8,-1440.52 1822.6,-1443.4 1826.62,-1449.13"/>
</g>
<!-- ShadeRec.h -->
<g id="node3" class="node"><title>ShadeRec.h</title>
<ellipse fill="none" stroke="black" cx="1651.91" cy="-1778.97" rx="52.7911" ry="18"/>
<text text-anchor="middle" x="1651.91" y="-1775.27" font-family="Times,serif" font-size="14.00">ShadeRec.h</text>
</g>
<!-- World.h&#45;&gt;ShadeRec.h -->
<g id="edge48" class="edge"><title>World.h&#45;&gt;ShadeRec.h</title>
<path fill="none" stroke="black" d="M1264.19,-1857.88C1338.92,-1842.67 1508.39,-1808.18 1596.45,-1790.26"/>
<polygon fill="black" stroke="black" points="1597.41,-1793.63 1606.52,-1788.21 1596.02,-1786.77 1597.41,-1793.63"/>
</g>
<!-- Constants.h -->
<g id="node4" class="node"><title>Constants.h</title>
<ellipse fill="none" stroke="black" cx="1871.06" cy="-1746.92" rx="51.9908" ry="18"/>
<text text-anchor="middle" x="1871.06" y="-1743.22" font-family="Times,serif" font-size="14.00">Constants.h</text>
</g>
<!-- World.h&#45;&gt;Constants.h -->
<g id="edge33" class="edge"><title>World.h&#45;&gt;Constants.h</title>
<path fill="none" stroke="black" d="M1264.65,-1858.51C1372.82,-1838.61 1686.52,-1780.88 1815.09,-1757.22"/>
<polygon fill="black" stroke="black" points="1815.92,-1760.62 1825.12,-1755.37 1814.66,-1753.74 1815.92,-1760.62"/>
</g>
<!-- RGBColor.h -->
<g id="node5" class="node"><title>RGBColor.h</title>
<ellipse fill="none" stroke="black" cx="1674.1" cy="-1333.49" rx="55.7903" ry="18"/>
<text text-anchor="middle" x="1674.1" y="-1329.79" font-family="Times,serif" font-size="14.00">RGBColor.h</text>
</g>
<!-- World.h&#45;&gt;RGBColor.h -->
<g id="edge72" class="edge"><title>World.h&#45;&gt;RGBColor.h</title>
<path fill="none" stroke="black" d="M1241.61,-1848.3C1306.79,-1770.71 1574.98,-1451.48 1652.82,-1358.82"/>
<polygon fill="black" stroke="black" points="1655.59,-1360.97 1659.34,-1351.06 1650.23,-1356.46 1655.59,-1360.97"/>
</g>
<!-- Camera.h -->
<g id="node6" class="node"><title>Camera.h</title>
<ellipse fill="none" stroke="black" cx="710.978" cy="-2460.19" rx="45.4919" ry="18"/>
<text text-anchor="middle" x="710.978" y="-2456.49" font-family="Times,serif" font-size="14.00">Camera.h</text>
</g>
<!-- World.h&#45;&gt;Camera.h -->
<g id="edge4" class="edge"><title>World.h&#45;&gt;Camera.h</title>
<path fill="none" stroke="black" d="M1212.63,-1882.24C1140.17,-1965.72 819.541,-2335.12 732.721,-2435.14"/>
<polygon fill="black" stroke="black" points="729.876,-2433.08 725.964,-2442.93 735.162,-2437.67 729.876,-2433.08"/>
</g>
<!-- Directional.h -->
<g id="node7" class="node"><title>Directional.h</title>
<ellipse fill="none" stroke="black" cx="1127.72" cy="-1212.88" rx="57.3905" ry="18"/>
<text text-anchor="middle" x="1127.72" y="-1209.18" font-family="Times,serif" font-size="14.00">Directional.h</text>
</g>
<!-- World.h&#45;&gt;Directional.h -->
<g id="edge80" class="edge"><title>World.h&#45;&gt;Directional.h</title>
<path fill="none" stroke="black" d="M1226.91,-1847.24C1218.73,-1756.45 1157.19,-1351.71 1135.02,-1240.97"/>
<polygon fill="black" stroke="black" points="1138.39,-1239.99 1132.94,-1230.9 1131.53,-1241.41 1138.39,-1239.99"/>
</g>
<!-- GeometricObject.h -->
<g id="node12" class="node"><title>GeometricObject.h</title>
<ellipse fill="none" stroke="black" cx="1660.57" cy="-1024.02" rx="78.7863" ry="18"/>
<text text-anchor="middle" x="1660.57" y="-1020.32" font-family="Times,serif" font-size="14.00">GeometricObject.h</text>
</g>
<!-- World.h&#45;&gt;GeometricObject.h -->
<g id="edge35" class="edge"><title>World.h&#45;&gt;GeometricObject.h</title>
<path fill="none" stroke="black" d="M1236.3,-1847.82C1291.2,-1741.23 1579.44,-1181.54 1646.58,-1051.18"/>
<polygon fill="black" stroke="black" points="1649.73,-1052.7 1651.2,-1042.21 1643.51,-1049.5 1649.73,-1052.7"/>
</g>
<!-- Pinhole.h -->
<g id="node14" class="node"><title>Pinhole.h</title>
<ellipse fill="none" stroke="black" cx="1315.05" cy="-2569.21" rx="44.393" ry="18"/>
<text text-anchor="middle" x="1315.05" y="-2565.51" font-family="Times,serif" font-size="14.00">Pinhole.h</text>
</g>
<!-- World.h&#45;&gt;Pinhole.h -->
<g id="edge44" class="edge"><title>World.h&#45;&gt;Pinhole.h</title>
<path fill="none" stroke="black" d="M1227.17,-1883.43C1233.3,-1978.83 1288.72,-2424.56 1308.67,-2541.21"/>
<polygon fill="black" stroke="black" points="1305.24,-2541.92 1310.43,-2551.15 1312.13,-2540.7 1305.24,-2541.92"/>
</g>
<!-- Ambient.h -->
<g id="node15" class="node"><title>Ambient.h</title>
<ellipse fill="none" stroke="black" cx="724.672" cy="-1510.93" rx="48.9926" ry="18"/>
<text text-anchor="middle" x="724.672" y="-1507.23" font-family="Times,serif" font-size="14.00">Ambient.h</text>
</g>
<!-- World.h&#45;&gt;Ambient.h -->
<g id="edge79" class="edge"><title>World.h&#45;&gt;Ambient.h</title>
<path fill="none" stroke="black" d="M1205.66,-1850.16C1126.04,-1794.01 848.718,-1598.42 755.505,-1532.67"/>
<polygon fill="black" stroke="black" points="757.514,-1529.81 747.325,-1526.9 753.48,-1535.53 757.514,-1529.81"/>
</g>
<!-- Light.h -->
<g id="node16" class="node"><title>Light.h</title>
<ellipse fill="none" stroke="black" cx="1339.1" cy="-1058.76" rx="36.2938" ry="18"/>
<text text-anchor="middle" x="1339.1" y="-1055.06" font-family="Times,serif" font-size="14.00">Light.h</text>
</g>
<!-- World.h&#45;&gt;Light.h -->
<g id="edge17" class="edge"><title>World.h&#45;&gt;Light.h</title>
<path fill="none" stroke="black" d="M1229.74,-1847.42C1244.21,-1743.06 1317.37,-1215.41 1335.18,-1086.98"/>
<polygon fill="black" stroke="black" points="1338.69,-1087.17 1336.6,-1076.78 1331.76,-1086.21 1338.69,-1087.17"/>
</g>
<!-- Matte.h -->
<g id="node19" class="node"><title>Matte.h</title>
<ellipse fill="none" stroke="black" cx="1494.31" cy="-2575.43" rx="38.1938" ry="18"/>
<text text-anchor="middle" x="1494.31" y="-2571.73" font-family="Times,serif" font-size="14.00">Matte.h</text>
</g>
<!-- World.h&#45;&gt;Matte.h -->
<g id="edge16" class="edge"><title>World.h&#45;&gt;Matte.h</title>
<path fill="none" stroke="black" d="M1233.99,-1883.3C1270.03,-1979.13 1440.12,-2431.35 1483.98,-2547.95"/>
<polygon fill="black" stroke="black" points="1480.8,-2549.44 1487.6,-2557.57 1487.35,-2546.98 1480.8,-2549.44"/>
</g>
<!-- MultipleObjects.h -->
<g id="node23" class="node"><title>MultipleObjects.h</title>
<ellipse fill="none" stroke="black" cx="1515.48" cy="-2882.8" rx="75.2868" ry="18"/>
<text text-anchor="middle" x="1515.48" y="-2879.1" font-family="Times,serif" font-size="14.00">MultipleObjects.h</text>
</g>
<!-- World.h&#45;&gt;MultipleObjects.h -->
<g id="edge29" class="edge"><title>World.h&#45;&gt;MultipleObjects.h</title>
<path fill="none" stroke="black" d="M1232.38,-1883.49C1266.89,-2005.33 1465.37,-2705.91 1507.58,-2854.93"/>
<polygon fill="black" stroke="black" points="1504.26,-2856.03 1510.35,-2864.69 1510.99,-2854.12 1504.26,-2856.03"/>
</g>
<!-- RayCast.h -->
<g id="node24" class="node"><title>RayCast.h</title>
<ellipse fill="none" stroke="black" cx="1659.52" cy="-2503.18" rx="47.3916" ry="18"/>
<text text-anchor="middle" x="1659.52" y="-2499.48" font-family="Times,serif" font-size="14.00">RayCast.h</text>
</g>
<!-- World.h&#45;&gt;RayCast.h -->
<g id="edge30" class="edge"><title>World.h&#45;&gt;RayCast.h</title>
<path fill="none" stroke="black" d="M1239.04,-1882.78C1298.93,-1971.15 1569.49,-2370.35 1641.74,-2476.94"/>
<polygon fill="black" stroke="black" points="1639.04,-2479.19 1647.54,-2485.5 1644.83,-2475.26 1639.04,-2479.19"/>
</g>
<!-- ViewPlane.h -->
<g id="node31" class="node"><title>ViewPlane.h</title>
<ellipse fill="none" stroke="black" cx="662.749" cy="-1297.02" rx="55.7903" ry="18"/>
<text text-anchor="middle" x="662.749" y="-1293.32" font-family="Times,serif" font-size="14.00">ViewPlane.h</text>
</g>
<!-- World.h&#45;&gt;ViewPlane.h -->
<g id="edge81" class="edge"><title>World.h&#45;&gt;ViewPlane.h</title>
<path fill="none" stroke="black" d="M1210.66,-1848.69C1130.43,-1767.91 782.58,-1417.68 687.083,-1321.52"/>
<polygon fill="black" stroke="black" points="689.42,-1318.91 679.89,-1314.28 684.453,-1323.84 689.42,-1318.91"/>
</g>
<!-- ShadeRec.h&#45;&gt;Ray.h -->
<g id="edge67" class="edge"><title>ShadeRec.h&#45;&gt;Ray.h</title>
<path fill="none" stroke="black" d="M1662.15,-1761C1695.16,-1703.1 1798.86,-1521.23 1837.89,-1452.79"/>
<polygon fill="black" stroke="black" points="1841.04,-1454.33 1842.95,-1443.91 1834.96,-1450.86 1841.04,-1454.33"/>
</g>
<!-- ShadeRec.h&#45;&gt;Constants.h -->
<g id="edge2" class="edge"><title>ShadeRec.h&#45;&gt;Constants.h</title>
<path fill="none" stroke="black" d="M1700.54,-1771.86C1733.71,-1767.01 1777.8,-1760.56 1812.84,-1755.43"/>
<polygon fill="black" stroke="black" points="1813.55,-1758.87 1822.93,-1753.96 1812.53,-1751.94 1813.55,-1758.87"/>
</g>
<!-- ShadeRec.h&#45;&gt;RGBColor.h -->
<g id="edge45" class="edge"><title>ShadeRec.h&#45;&gt;RGBColor.h</title>
<path fill="none" stroke="black" d="M1652.8,-1760.96C1656.23,-1692.19 1668.5,-1445.85 1672.69,-1361.82"/>
<polygon fill="black" stroke="black" points="1676.19,-1361.89 1673.19,-1351.73 1669.2,-1361.54 1676.19,-1361.89"/>
</g>
<!-- Constants.h&#45;&gt;RGBColor.h -->
<g id="edge3" class="edge"><title>Constants.h&#45;&gt;RGBColor.h</title>
<path fill="none" stroke="black" d="M1862.59,-1729.15C1831.67,-1664.24 1724.62,-1439.54 1687.17,-1360.92"/>
<polygon fill="black" stroke="black" points="1690.21,-1359.18 1682.75,-1351.65 1683.9,-1362.19 1690.21,-1359.18"/>
</g>
<!-- Directional.h&#45;&gt;World.h -->
<g id="edge60" class="edge"><title>Directional.h&#45;&gt;World.h</title>
<path fill="none" stroke="black" d="M1128.06,-1231.03C1136.25,-1321.82 1197.79,-1726.56 1219.96,-1837.31"/>
<polygon fill="black" stroke="black" points="1216.58,-1838.28 1222.04,-1847.37 1223.44,-1836.87 1216.58,-1838.28"/>
</g>
<!-- Directional.h&#45;&gt;ShadeRec.h -->
<g id="edge63" class="edge"><title>Directional.h&#45;&gt;ShadeRec.h</title>
<path fill="none" stroke="black" d="M1143.98,-1230.44C1219.96,-1312.49 1539.96,-1658.07 1628.89,-1754.12"/>
<polygon fill="black" stroke="black" points="1626.47,-1756.65 1635.83,-1761.61 1631.61,-1751.9 1626.47,-1756.65"/>
</g>
<!-- Directional.h&#45;&gt;RGBColor.h -->
<g id="edge5" class="edge"><title>Directional.h&#45;&gt;RGBColor.h</title>
<path fill="none" stroke="black" d="M1174.78,-1223.27C1275.08,-1245.41 1509.57,-1297.17 1617.68,-1321.04"/>
<polygon fill="black" stroke="black" points="1617.22,-1324.52 1627.74,-1323.26 1618.73,-1317.68 1617.22,-1324.52"/>
</g>
<!-- Directional.h&#45;&gt;Light.h -->
<g id="edge77" class="edge"><title>Directional.h&#45;&gt;Light.h</title>
<path fill="none" stroke="black" d="M1150.74,-1196.09C1189.58,-1167.77 1268.02,-1110.58 1310.39,-1079.69"/>
<polygon fill="black" stroke="black" points="1312.59,-1082.42 1318.61,-1073.7 1308.47,-1076.76 1312.59,-1082.42"/>
</g>
<!-- Sphere.cpp -->
<g id="node8" class="node"><title>Sphere.cpp</title>
<ellipse fill="none" stroke="black" cx="2858.77" cy="-485.544" rx="50.0912" ry="18"/>
<text text-anchor="middle" x="2858.77" y="-481.844" font-family="Times,serif" font-size="14.00">Sphere.cpp</text>
</g>
<!-- Sphere.h -->
<g id="node9" class="node"><title>Sphere.h</title>
<ellipse fill="none" stroke="black" cx="2308.41" cy="-963.597" rx="42.4939" ry="18"/>
<text text-anchor="middle" x="2308.41" y="-959.897" font-family="Times,serif" font-size="14.00">Sphere.h</text>
</g>
<!-- Sphere.cpp&#45;&gt;Sphere.h -->
<g id="edge6" class="edge"><title>Sphere.cpp&#45;&gt;Sphere.h</title>
<path fill="none" stroke="black" d="M2839.5,-502.278C2756.68,-574.217 2430.78,-857.303 2335.01,-940.491"/>
<polygon fill="black" stroke="black" points="2332.49,-938.045 2327.24,-947.245 2337.08,-943.329 2332.49,-938.045"/>
</g>
<!-- Sphere.h&#45;&gt;Constants.h -->
<g id="edge28" class="edge"><title>Sphere.h&#45;&gt;Constants.h</title>
<path fill="none" stroke="black" d="M2298.45,-981.429C2241.27,-1083.86 1954.72,-1597.07 1885.92,-1720.29"/>
<polygon fill="black" stroke="black" points="1882.82,-1718.68 1881,-1729.11 1888.93,-1722.09 1882.82,-1718.68"/>
</g>
<!-- Sphere.h&#45;&gt;GeometricObject.h -->
<g id="edge11" class="edge"><title>Sphere.h&#45;&gt;GeometricObject.h</title>
<path fill="none" stroke="black" d="M2266.9,-967.469C2161.87,-977.265 1883.99,-1003.18 1743.86,-1016.25"/>
<polygon fill="black" stroke="black" points="1743.23,-1012.8 1733.6,-1017.21 1743.88,-1019.77 1743.23,-1012.8"/>
</g>
<!-- RayCast.cpp -->
<g id="node10" class="node"><title>RayCast.cpp</title>
<ellipse fill="none" stroke="black" cx="1157.9" cy="-2228.98" rx="55.7903" ry="18"/>
<text text-anchor="middle" x="1157.9" y="-2225.28" font-family="Times,serif" font-size="14.00">RayCast.cpp</text>
</g>
<!-- RayCast.cpp&#45;&gt;World.h -->
<g id="edge7" class="edge"><title>RayCast.cpp&#45;&gt;World.h</title>
<path fill="none" stroke="black" d="M1161.34,-2210.95C1172.57,-2152.07 1208.23,-1965.13 1221.87,-1893.6"/>
<polygon fill="black" stroke="black" points="1225.35,-1894.01 1223.79,-1883.53 1218.48,-1892.7 1225.35,-1894.01"/>
</g>
<!-- RayCast.cpp&#45;&gt;ShadeRec.h -->
<g id="edge42" class="edge"><title>RayCast.cpp&#45;&gt;ShadeRec.h</title>
<path fill="none" stroke="black" d="M1176.66,-2211.88C1252.71,-2142.61 1538.1,-1882.64 1625.98,-1802.59"/>
<polygon fill="black" stroke="black" points="1628.35,-1805.16 1633.39,-1795.84 1623.64,-1799.99 1628.35,-1805.16"/>
</g>
<!-- Material.h -->
<g id="node11" class="node"><title>Material.h</title>
<ellipse fill="none" stroke="black" cx="1302.42" cy="-1465.65" rx="48.1917" ry="18"/>
<text text-anchor="middle" x="1302.42" y="-1461.95" font-family="Times,serif" font-size="14.00">Material.h</text>
</g>
<!-- RayCast.cpp&#45;&gt;Material.h -->
<g id="edge71" class="edge"><title>RayCast.cpp&#45;&gt;Material.h</title>
<path fill="none" stroke="black" d="M1161.33,-2210.86C1180.44,-2109.95 1273.71,-1617.29 1297.09,-1493.77"/>
<polygon fill="black" stroke="black" points="1300.54,-1494.41 1298.96,-1483.93 1293.66,-1493.11 1300.54,-1494.41"/>
</g>
<!-- RayCast.cpp&#45;&gt;RayCast.h -->
<g id="edge83" class="edge"><title>RayCast.cpp&#45;&gt;RayCast.h</title>
<path fill="none" stroke="black" d="M1186.31,-2244.5C1272.05,-2291.38 1528.21,-2431.4 1623.39,-2483.43"/>
<polygon fill="black" stroke="black" points="1621.9,-2486.6 1632.35,-2488.33 1625.25,-2480.46 1621.9,-2486.6"/>
</g>
<!-- Material.h&#45;&gt;World.h -->
<g id="edge8" class="edge"><title>Material.h&#45;&gt;World.h</title>
<path fill="none" stroke="black" d="M1298.99,-1483.86C1287.03,-1547.47 1247.07,-1759.98 1232.57,-1837.12"/>
<polygon fill="black" stroke="black" points="1229.1,-1836.6 1230.7,-1847.07 1235.98,-1837.89 1229.1,-1836.6"/>
</g>
<!-- Material.h&#45;&gt;ShadeRec.h -->
<g id="edge21" class="edge"><title>Material.h&#45;&gt;ShadeRec.h</title>
<path fill="none" stroke="black" d="M1321.21,-1482.49C1379.52,-1534.77 1557.54,-1694.37 1625.32,-1755.14"/>
<polygon fill="black" stroke="black" points="1623.24,-1757.97 1633.02,-1762.04 1627.91,-1752.76 1623.24,-1757.97"/>
</g>
<!-- Material.h&#45;&gt;RGBColor.h -->
<g id="edge39" class="edge"><title>Material.h&#45;&gt;RGBColor.h</title>
<path fill="none" stroke="black" d="M1337.39,-1453.22C1404.4,-1429.39 1550.99,-1377.27 1626.72,-1350.34"/>
<polygon fill="black" stroke="black" points="1628.23,-1353.52 1636.48,-1346.87 1625.88,-1346.92 1628.23,-1353.52"/>
</g>
<!-- GeometricObject.h&#45;&gt;Ray.h -->
<g id="edge20" class="edge"><title>GeometricObject.h&#45;&gt;Ray.h</title>
<path fill="none" stroke="black" d="M1669.21,-1042.09C1699.85,-1106.19 1803.47,-1322.93 1840.03,-1399.4"/>
<polygon fill="black" stroke="black" points="1837.07,-1401.32 1844.54,-1408.83 1843.38,-1398.3 1837.07,-1401.32"/>
</g>
<!-- GeometricObject.h&#45;&gt;ShadeRec.h -->
<g id="edge9" class="edge"><title>GeometricObject.h&#45;&gt;ShadeRec.h</title>
<path fill="none" stroke="black" d="M1660.36,-1042.31C1659.2,-1142.86 1653.63,-1628.32 1652.23,-1750.84"/>
<polygon fill="black" stroke="black" points="1648.73,-1750.88 1652.11,-1760.92 1655.73,-1750.97 1648.73,-1750.88"/>
</g>
<!-- GeometricObject.h&#45;&gt;Constants.h -->
<g id="edge43" class="edge"><title>GeometricObject.h&#45;&gt;Constants.h</title>
<path fill="none" stroke="black" d="M1665.88,-1042.25C1694.28,-1139.82 1828.35,-1600.23 1862.91,-1718.94"/>
<polygon fill="black" stroke="black" points="1859.61,-1720.11 1865.76,-1728.74 1866.33,-1718.16 1859.61,-1720.11"/>
</g>
<!-- GeometricObject.h&#45;&gt;Material.h -->
<g id="edge70" class="edge"><title>GeometricObject.h&#45;&gt;Material.h</title>
<path fill="none" stroke="black" d="M1646.08,-1041.88C1590.27,-1110.7 1389.01,-1358.88 1323.32,-1439.88"/>
<polygon fill="black" stroke="black" points="1320.27,-1438.08 1316.69,-1448.05 1325.71,-1442.49 1320.27,-1438.08"/>
</g>
<!-- BuildShadedObjects.cpp -->
<g id="node13" class="node"><title>BuildShadedObjects.cpp</title>
<ellipse fill="none" stroke="black" cx="1480.52" cy="-1907.58" rx="98.2828" ry="18"/>
<text text-anchor="middle" x="1480.52" y="-1903.88" font-family="Times,serif" font-size="14.00">BuildShadedObjects.cpp</text>
</g>
<!-- BuildShadedObjects.cpp&#45;&gt;World.h -->
<g id="edge10" class="edge"><title>BuildShadedObjects.cpp&#45;&gt;World.h</title>
<path fill="none" stroke="black" d="M1407.6,-1895.43C1365.13,-1888.36 1312.75,-1879.64 1275.41,-1873.42"/>
<polygon fill="black" stroke="black" points="1275.73,-1869.92 1265.29,-1871.73 1274.58,-1876.83 1275.73,-1869.92"/>
</g>
<!-- BuildShadedObjects.cpp&#45;&gt;Directional.h -->
<g id="edge51" class="edge"><title>BuildShadedObjects.cpp&#45;&gt;Directional.h</title>
<path fill="none" stroke="black" d="M1471.26,-1889.35C1422.93,-1794.19 1199.55,-1354.31 1141.52,-1240.06"/>
<polygon fill="black" stroke="black" points="1144.53,-1238.24 1136.88,-1230.91 1138.29,-1241.41 1144.53,-1238.24"/>
</g>
<!-- BuildShadedObjects.cpp&#45;&gt;Pinhole.h -->
<g id="edge69" class="edge"><title>BuildShadedObjects.cpp&#45;&gt;Pinhole.h</title>
<path fill="none" stroke="black" d="M1476.01,-1925.62C1453.13,-2017.11 1349.91,-2429.82 1322.02,-2541.35"/>
<polygon fill="black" stroke="black" points="1318.59,-2540.64 1319.56,-2551.19 1325.38,-2542.33 1318.59,-2540.64"/>
</g>
<!-- BuildShadedObjects.cpp&#45;&gt;Matte.h -->
<g id="edge41" class="edge"><title>BuildShadedObjects.cpp&#45;&gt;Matte.h</title>
<path fill="none" stroke="black" d="M1480.89,-1925.79C1482.8,-2018.05 1491.39,-2433.89 1493.73,-2546.97"/>
<polygon fill="black" stroke="black" points="1490.23,-2547.31 1493.94,-2557.24 1497.23,-2547.17 1490.23,-2547.31"/>
</g>
<!-- Plane.h -->
<g id="node21" class="node"><title>Plane.h</title>
<ellipse fill="none" stroke="black" cx="2042.39" cy="-934.032" rx="37.0935" ry="18"/>
<text text-anchor="middle" x="2042.39" y="-930.332" font-family="Times,serif" font-size="14.00">Plane.h</text>
</g>
<!-- BuildShadedObjects.cpp&#45;&gt;Plane.h -->
<g id="edge55" class="edge"><title>BuildShadedObjects.cpp&#45;&gt;Plane.h</title>
<path fill="none" stroke="black" d="M1490.99,-1889.43C1559.65,-1770.47 1945.04,-1102.71 2027.05,-960.62"/>
<polygon fill="black" stroke="black" points="2030.25,-962.081 2032.21,-951.671 2024.18,-958.582 2030.25,-962.081"/>
</g>
<!-- BuildShadedObjects.cpp&#45;&gt;RayCast.h -->
<g id="edge58" class="edge"><title>BuildShadedObjects.cpp&#45;&gt;RayCast.h</title>
<path fill="none" stroke="black" d="M1485.97,-1925.73C1511.61,-2011.02 1620.14,-2372.14 1651.19,-2475.46"/>
<polygon fill="black" stroke="black" points="1647.88,-2476.6 1654.11,-2485.17 1654.59,-2474.59 1647.88,-2476.6"/>
</g>
<!-- Pinhole.h&#45;&gt;World.h -->
<g id="edge12" class="edge"><title>Pinhole.h&#45;&gt;World.h</title>
<path fill="none" stroke="black" d="M1315.13,-2551.17C1309,-2455.78 1253.58,-2010.04 1233.63,-1893.39"/>
<polygon fill="black" stroke="black" points="1237.06,-1892.69 1231.87,-1883.45 1230.17,-1893.91 1237.06,-1892.69"/>
</g>
<!-- Pinhole.h&#45;&gt;Constants.h -->
<g id="edge22" class="edge"><title>Pinhole.h&#45;&gt;Constants.h</title>
<path fill="none" stroke="black" d="M1326.92,-2551.66C1398.08,-2446.42 1767.91,-1899.46 1853.41,-1773.02"/>
<polygon fill="black" stroke="black" points="1856.36,-1774.9 1859.06,-1764.66 1850.56,-1770.98 1856.36,-1774.9"/>
</g>
<!-- Pinhole.h&#45;&gt;Camera.h -->
<g id="edge73" class="edge"><title>Pinhole.h&#45;&gt;Camera.h</title>
<path fill="none" stroke="black" d="M1274.48,-2561.89C1167.93,-2542.66 880.316,-2490.75 762.436,-2469.48"/>
<polygon fill="black" stroke="black" points="763.033,-2466.03 752.57,-2467.7 761.789,-2472.92 763.033,-2466.03"/>
</g>
<!-- Ambient.h&#45;&gt;Light.h -->
<g id="edge13" class="edge"><title>Ambient.h&#45;&gt;Light.h</title>
<path fill="none" stroke="black" d="M746.54,-1494.83C839.9,-1426.13 1205.12,-1157.36 1310.49,-1079.81"/>
<polygon fill="black" stroke="black" points="1312.77,-1082.48 1318.75,-1073.73 1308.62,-1076.84 1312.77,-1082.48"/>
</g>
<!-- Light.h&#45;&gt;Ray.h -->
<g id="edge49" class="edge"><title>Light.h&#45;&gt;Ray.h</title>
<path fill="none" stroke="black" d="M1359.88,-1073.63C1440.45,-1131.28 1732.36,-1340.13 1824.72,-1406.21"/>
<polygon fill="black" stroke="black" points="1822.85,-1409.17 1833.02,-1412.14 1826.92,-1403.48 1822.85,-1409.17"/>
</g>
<!-- Light.h&#45;&gt;Constants.h -->
<g id="edge24" class="edge"><title>Light.h&#45;&gt;Constants.h</title>
<path fill="none" stroke="black" d="M1352.25,-1075.77C1423.66,-1168.16 1764.89,-1609.57 1851.19,-1721.22"/>
<polygon fill="black" stroke="black" points="1848.52,-1723.49 1857.41,-1729.26 1854.06,-1719.21 1848.52,-1723.49"/>
</g>
<!-- Light.h&#45;&gt;RGBColor.h -->
<g id="edge40" class="edge"><title>Light.h&#45;&gt;RGBColor.h</title>
<path fill="none" stroke="black" d="M1358.07,-1074.32C1414.08,-1120.26 1578.99,-1255.49 1645.65,-1310.16"/>
<polygon fill="black" stroke="black" points="1643.7,-1313.09 1653.65,-1316.72 1648.14,-1307.67 1643.7,-1313.09"/>
</g>
<!-- BRDF.h -->
<g id="node17" class="node"><title>BRDF.h</title>
<ellipse fill="none" stroke="black" cx="2289.16" cy="-1821.78" rx="40.0939" ry="18"/>
<text text-anchor="middle" x="2289.16" y="-1818.08" font-family="Times,serif" font-size="14.00">BRDF.h</text>
</g>
<!-- BRDF.h&#45;&gt;ShadeRec.h -->
<g id="edge14" class="edge"><title>BRDF.h&#45;&gt;ShadeRec.h</title>
<path fill="none" stroke="black" d="M2249.3,-1819.1C2141.59,-1811.86 1844.1,-1791.88 1714.08,-1783.15"/>
<polygon fill="black" stroke="black" points="1714.11,-1779.64 1703.89,-1782.46 1713.64,-1786.63 1714.11,-1779.64"/>
</g>
<!-- BRDF.h&#45;&gt;Constants.h -->
<g id="edge57" class="edge"><title>BRDF.h&#45;&gt;Constants.h</title>
<path fill="none" stroke="black" d="M2251.69,-1815.07C2178.04,-1801.88 2014.05,-1772.52 1927.33,-1756.99"/>
<polygon fill="black" stroke="black" points="1927.87,-1753.53 1917.4,-1755.22 1926.63,-1760.42 1927.87,-1753.53"/>
</g>
<!-- BRDF.h&#45;&gt;RGBColor.h -->
<g id="edge19" class="edge"><title>BRDF.h&#45;&gt;RGBColor.h</title>
<path fill="none" stroke="black" d="M2269.4,-1806.08C2179.71,-1734.88 1810.78,-1442 1703.49,-1356.82"/>
<polygon fill="black" stroke="black" points="1705.37,-1353.85 1695.36,-1350.37 1701.02,-1359.33 1705.37,-1353.85"/>
</g>
<!-- Pinhole.cpp -->
<g id="node18" class="node"><title>Pinhole.cpp</title>
<ellipse fill="none" stroke="black" cx="1438.04" cy="-3682.13" rx="52.7911" ry="18"/>
<text text-anchor="middle" x="1438.04" y="-3678.43" font-family="Times,serif" font-size="14.00">Pinhole.cpp</text>
</g>
<!-- Pinhole.cpp&#45;&gt;Pinhole.h -->
<g id="edge15" class="edge"><title>Pinhole.cpp&#45;&gt;Pinhole.h</title>
<path fill="none" stroke="black" d="M1436.01,-3663.74C1421.67,-3534.02 1335.83,-2757.28 1318.21,-2597.81"/>
<polygon fill="black" stroke="black" points="1321.64,-2596.97 1317.06,-2587.42 1314.68,-2597.74 1321.64,-2596.97"/>
</g>
<!-- Matte.h&#45;&gt;Material.h -->
<g id="edge34" class="edge"><title>Matte.h&#45;&gt;Material.h</title>
<path fill="none" stroke="black" d="M1491.14,-2557.09C1468.75,-2427.61 1334.58,-1651.64 1307.27,-1493.7"/>
<polygon fill="black" stroke="black" points="1310.71,-1493.06 1305.56,-1483.8 1303.81,-1494.25 1310.71,-1493.06"/>
</g>
<!-- Lambertian.h -->
<g id="node32" class="node"><title>Lambertian.h</title>
<ellipse fill="none" stroke="black" cx="2135.22" cy="-2689.39" rx="58.4896" ry="18"/>
<text text-anchor="middle" x="2135.22" y="-2685.69" font-family="Times,serif" font-size="14.00">Lambertian.h</text>
</g>
<!-- Matte.h&#45;&gt;Lambertian.h -->
<g id="edge68" class="edge"><title>Matte.h&#45;&gt;Lambertian.h</title>
<path fill="none" stroke="black" d="M1530.61,-2581.88C1636.03,-2600.63 1943.08,-2655.23 2074.44,-2678.58"/>
<polygon fill="black" stroke="black" points="2073.89,-2682.04 2084.35,-2680.34 2075.11,-2675.15 2073.89,-2682.04"/>
</g>
<!-- Tracer.h -->
<g id="node20" class="node"><title>Tracer.h</title>
<ellipse fill="none" stroke="black" cx="2081.9" cy="-2209.09" rx="40.0939" ry="18"/>
<text text-anchor="middle" x="2081.9" y="-2205.39" font-family="Times,serif" font-size="14.00">Tracer.h</text>
</g>
<!-- Tracer.h&#45;&gt;Ray.h -->
<g id="edge27" class="edge"><title>Tracer.h&#45;&gt;Ray.h</title>
<path fill="none" stroke="black" d="M2076.57,-2190.89C2046.47,-2087.97 1897.57,-1578.97 1861.04,-1454.1"/>
<polygon fill="black" stroke="black" points="1864.4,-1453.11 1858.23,-1444.49 1857.68,-1455.07 1864.4,-1453.11"/>
</g>
<!-- Tracer.h&#45;&gt;Constants.h -->
<g id="edge18" class="edge"><title>Tracer.h&#45;&gt;Constants.h</title>
<path fill="none" stroke="black" d="M2073.76,-2191.25C2041.48,-2120.48 1922.26,-1859.17 1883.4,-1773.97"/>
<polygon fill="black" stroke="black" points="1886.5,-1772.35 1879.17,-1764.7 1880.14,-1775.25 1886.5,-1772.35"/>
</g>
<!-- Tracer.h&#45;&gt;RGBColor.h -->
<g id="edge25" class="edge"><title>Tracer.h&#45;&gt;RGBColor.h</title>
<path fill="none" stroke="black" d="M2073.57,-2191.2C2022.21,-2080.94 1748.84,-1493.96 1686.68,-1360.5"/>
<polygon fill="black" stroke="black" points="1689.81,-1358.94 1682.42,-1351.35 1683.47,-1361.89 1689.81,-1358.94"/>
</g>
<!-- Plane.h&#45;&gt;Constants.h -->
<g id="edge50" class="edge"><title>Plane.h&#45;&gt;Constants.h</title>
<path fill="none" stroke="black" d="M2038.57,-952.15C2016.39,-1057.42 1904.11,-1590.12 1876.97,-1718.87"/>
<polygon fill="black" stroke="black" points="1873.52,-1718.25 1874.89,-1728.76 1880.37,-1719.69 1873.52,-1718.25"/>
</g>
<!-- Plane.h&#45;&gt;GeometricObject.h -->
<g id="edge23" class="edge"><title>Plane.h&#45;&gt;GeometricObject.h</title>
<path fill="none" stroke="black" d="M2008.84,-941.939C1945.52,-956.864 1807.39,-989.419 1725.39,-1008.74"/>
<polygon fill="black" stroke="black" points="1724.37,-1005.39 1715.44,-1011.09 1725.97,-1012.2 1724.37,-1005.39"/>
</g>
<!-- RGBColor.cpp -->
<g id="node22" class="node"><title>RGBColor.cpp</title>
<ellipse fill="none" stroke="black" cx="1857.89" cy="-284.295" rx="63.8893" ry="18"/>
<text text-anchor="middle" x="1857.89" y="-280.595" font-family="Times,serif" font-size="14.00">RGBColor.cpp</text>
</g>
<!-- RGBColor.cpp&#45;&gt;RGBColor.h -->
<g id="edge26" class="edge"><title>RGBColor.cpp&#45;&gt;RGBColor.h</title>
<path fill="none" stroke="black" d="M1854.7,-302.506C1832.89,-427.003 1705.85,-1152.25 1679.06,-1305.18"/>
<polygon fill="black" stroke="black" points="1675.58,-1304.74 1677.31,-1315.19 1682.48,-1305.94 1675.58,-1304.74"/>
</g>
<!-- MultipleObjects.h&#45;&gt;Tracer.h -->
<g id="edge47" class="edge"><title>MultipleObjects.h&#45;&gt;Tracer.h</title>
<path fill="none" stroke="black" d="M1530.34,-2865.13C1608.34,-2772.35 1970.32,-2341.8 2061.17,-2233.74"/>
<polygon fill="black" stroke="black" points="2063.95,-2235.87 2067.71,-2225.96 2058.6,-2231.36 2063.95,-2235.87"/>
</g>
<!-- RayCast.h&#45;&gt;Tracer.h -->
<g id="edge52" class="edge"><title>RayCast.h&#45;&gt;Tracer.h</title>
<path fill="none" stroke="black" d="M1682.23,-2487.37C1753.32,-2437.87 1971.63,-2285.87 2051.89,-2229.98"/>
<polygon fill="black" stroke="black" points="2053.89,-2232.85 2060.1,-2224.27 2049.89,-2227.11 2053.89,-2232.85"/>
</g>
<!-- World.cpp -->
<g id="node25" class="node"><title>World.cpp</title>
<ellipse fill="none" stroke="black" cx="813.22" cy="-2516.26" rx="48.9926" ry="18"/>
<text text-anchor="middle" x="813.22" y="-2512.56" font-family="Times,serif" font-size="14.00">World.cpp</text>
</g>
<!-- World.cpp&#45;&gt;World.h -->
<g id="edge31" class="edge"><title>World.cpp&#45;&gt;World.h</title>
<path fill="none" stroke="black" d="M824.509,-2498.51C881.997,-2408.14 1142.16,-1999.16 1210.67,-1891.45"/>
<polygon fill="black" stroke="black" points="1213.75,-1893.14 1216.17,-1882.82 1207.84,-1889.38 1213.75,-1893.14"/>
</g>
<!-- MultipleObjects.cpp -->
<g id="node26" class="node"><title>MultipleObjects.cpp</title>
<ellipse fill="none" stroke="black" cx="1054.36" cy="-2837.71" rx="83.3857" ry="18"/>
<text text-anchor="middle" x="1054.36" y="-2834.01" font-family="Times,serif" font-size="14.00">MultipleObjects.cpp</text>
</g>
<!-- MultipleObjects.cpp&#45;&gt;World.h -->
<g id="edge32" class="edge"><title>MultipleObjects.cpp&#45;&gt;World.h</title>
<path fill="none" stroke="black" d="M1057.58,-2819.58C1078.65,-2701.14 1196.57,-2037.95 1222.29,-1893.27"/>
<polygon fill="black" stroke="black" points="1225.74,-1893.86 1224.05,-1883.4 1218.85,-1892.63 1225.74,-1893.86"/>
</g>
<!-- MultipleObjects.cpp&#45;&gt;MultipleObjects.h -->
<g id="edge65" class="edge"><title>MultipleObjects.cpp&#45;&gt;MultipleObjects.h</title>
<path fill="none" stroke="black" d="M1130.25,-2845.13C1214.39,-2853.36 1349.54,-2866.58 1435.35,-2874.97"/>
<polygon fill="black" stroke="black" points="1435.27,-2878.47 1445.56,-2875.96 1435.95,-2871.51 1435.27,-2878.47"/>
</g>
<!-- Tracer.cpp -->
<g id="node27" class="node"><title>Tracer.cpp</title>
<ellipse fill="none" stroke="black" cx="2687.81" cy="-2696.11" rx="48.9926" ry="18"/>
<text text-anchor="middle" x="2687.81" y="-2692.41" font-family="Times,serif" font-size="14.00">Tracer.cpp</text>
</g>
<!-- Tracer.cpp&#45;&gt;Tracer.h -->
<g id="edge36" class="edge"><title>Tracer.cpp&#45;&gt;Tracer.h</title>
<path fill="none" stroke="black" d="M2667.31,-2679.63C2576.73,-2606.83 2212.49,-2314.06 2109.28,-2231.1"/>
<polygon fill="black" stroke="black" points="2111.47,-2228.36 2101.48,-2224.83 2107.08,-2233.82 2111.47,-2228.36"/>
</g>
<!-- Ambient.cpp -->
<g id="node28" class="node"><title>Ambient.cpp</title>
<ellipse fill="none" stroke="black" cx="57.1949" cy="-1578.67" rx="57.3905" ry="18"/>
<text text-anchor="middle" x="57.1949" y="-1574.97" font-family="Times,serif" font-size="14.00">Ambient.cpp</text>
</g>
<!-- Ambient.cpp&#45;&gt;Ambient.h -->
<g id="edge37" class="edge"><title>Ambient.cpp&#45;&gt;Ambient.h</title>
<path fill="none" stroke="black" d="M111.817,-1573.12C236.285,-1560.49 539.999,-1529.67 667.175,-1516.76"/>
<polygon fill="black" stroke="black" points="667.879,-1520.21 677.474,-1515.72 667.172,-1513.24 667.879,-1520.21"/>
</g>
<!-- Camera.cpp -->
<g id="node29" class="node"><title>Camera.cpp</title>
<ellipse fill="none" stroke="black" cx="261.116" cy="-3086.69" rx="53.8905" ry="18"/>
<text text-anchor="middle" x="261.116" y="-3082.99" font-family="Times,serif" font-size="14.00">Camera.cpp</text>
</g>
<!-- Camera.cpp&#45;&gt;Camera.h -->
<g id="edge38" class="edge"><title>Camera.cpp&#45;&gt;Camera.h</title>
<path fill="none" stroke="black" d="M273.855,-3068.95C337.071,-2980.91 617.049,-2591 692.303,-2486.2"/>
<polygon fill="black" stroke="black" points="695.361,-2487.94 698.35,-2477.78 689.675,-2483.86 695.361,-2487.94"/>
</g>
<!-- ViewPlane.cpp -->
<g id="node30" class="node"><title>ViewPlane.cpp</title>
<ellipse fill="none" stroke="black" cx="101.082" cy="-927.26" rx="64.189" ry="18"/>
<text text-anchor="middle" x="101.082" y="-923.56" font-family="Times,serif" font-size="14.00">ViewPlane.cpp</text>
</g>
<!-- ViewPlane.cpp&#45;&gt;ViewPlane.h -->
<g id="edge46" class="edge"><title>ViewPlane.cpp&#45;&gt;ViewPlane.h</title>
<path fill="none" stroke="black" d="M126.307,-943.866C217.05,-1003.61 526.922,-1207.6 629.484,-1275.12"/>
<polygon fill="black" stroke="black" points="627.636,-1278.1 637.913,-1280.67 631.485,-1272.25 627.636,-1278.1"/>
</g>
<!-- Lambertian.h&#45;&gt;Constants.h -->
<g id="edge66" class="edge"><title>Lambertian.h&#45;&gt;Constants.h</title>
<path fill="none" stroke="black" d="M2130.17,-2671.4C2097.75,-2555.71 1918.61,-1916.58 1878.87,-1774.79"/>
<polygon fill="black" stroke="black" points="1882.22,-1773.78 1876.15,-1765.09 1875.48,-1775.67 1882.22,-1773.78"/>
</g>
<!-- Lambertian.h&#45;&gt;BRDF.h -->
<g id="edge53" class="edge"><title>Lambertian.h&#45;&gt;BRDF.h</title>
<path fill="none" stroke="black" d="M2138.43,-2671.27C2157.94,-2561.33 2260.37,-1984.03 2284.21,-1849.72"/>
<polygon fill="black" stroke="black" points="2287.66,-1850.26 2285.97,-1839.8 2280.77,-1849.03 2287.66,-1850.26"/>
</g>
<!-- main.cpp -->
<g id="node33" class="node"><title>main.cpp</title>
<ellipse fill="none" stroke="black" cx="652.341" cy="-1956.68" rx="44.393" ry="18"/>
<text text-anchor="middle" x="652.341" y="-1952.98" font-family="Times,serif" font-size="14.00">main.cpp</text>
</g>
<!-- main.cpp&#45;&gt;World.h -->
<g id="edge54" class="edge"><title>main.cpp&#45;&gt;World.h</title>
<path fill="none" stroke="black" d="M693.688,-1950.11C797.425,-1933.64 1068.32,-1890.63 1179.04,-1873.05"/>
<polygon fill="black" stroke="black" points="1179.61,-1876.5 1188.93,-1871.48 1178.51,-1869.59 1179.61,-1876.5"/>
</g>
<!-- Matte.cpp -->
<g id="node34" class="node"><title>Matte.cpp</title>
<ellipse fill="none" stroke="black" cx="1226.47" cy="-3656.58" rx="46.5926" ry="18"/>
<text text-anchor="middle" x="1226.47" y="-3652.88" font-family="Times,serif" font-size="14.00">Matte.cpp</text>
</g>
<!-- Matte.cpp&#45;&gt;Matte.h -->
<g id="edge56" class="edge"><title>Matte.cpp&#45;&gt;Matte.h</title>
<path fill="none" stroke="black" d="M1231.01,-3638.27C1262.52,-3511.05 1448.74,-2759.37 1487.32,-2603.66"/>
<polygon fill="black" stroke="black" points="1490.83,-2604.04 1489.84,-2593.49 1484.04,-2602.36 1490.83,-2604.04"/>
</g>
<!-- Ray.cpp -->
<g id="node35" class="node"><title>Ray.cpp</title>
<ellipse fill="none" stroke="black" cx="2522.79" cy="-1080.74" rx="40.0939" ry="18"/>
<text text-anchor="middle" x="2522.79" y="-1077.04" font-family="Times,serif" font-size="14.00">Ray.cpp</text>
</g>
<!-- Ray.cpp&#45;&gt;Ray.h -->
<g id="edge59" class="edge"><title>Ray.cpp&#45;&gt;Ray.h</title>
<path fill="none" stroke="black" d="M2496.12,-1094.5C2390.44,-1149.03 2001.28,-1349.85 1885.58,-1409.55"/>
<polygon fill="black" stroke="black" points="1883.77,-1406.55 1876.49,-1414.24 1886.98,-1412.77 1883.77,-1406.55"/>
</g>
<!-- Plane.cpp -->
<g id="node36" class="node"><title>Plane.cpp</title>
<ellipse fill="none" stroke="black" cx="2377.06" cy="-25.6357" rx="45.4919" ry="18"/>
<text text-anchor="middle" x="2377.06" y="-21.9357" font-family="Times,serif" font-size="14.00">Plane.cpp</text>
</g>
<!-- Plane.cpp&#45;&gt;Plane.h -->
<g id="edge61" class="edge"><title>Plane.cpp&#45;&gt;Plane.h</title>
<path fill="none" stroke="black" d="M2370.37,-43.7812C2328.58,-157.227 2103.33,-768.618 2052.56,-906.427"/>
<polygon fill="black" stroke="black" points="2049.13,-905.623 2048.96,-916.217 2055.7,-908.043 2049.13,-905.623"/>
</g>
<!-- BRDF.cpp -->
<g id="node37" class="node"><title>BRDF.cpp</title>
<ellipse fill="none" stroke="black" cx="2927.41" cy="-1893.51" rx="48.9926" ry="18"/>
<text text-anchor="middle" x="2927.41" y="-1889.81" font-family="Times,serif" font-size="14.00">BRDF.cpp</text>
</g>
<!-- BRDF.cpp&#45;&gt;BRDF.h -->
<g id="edge62" class="edge"><title>BRDF.cpp&#45;&gt;BRDF.h</title>
<path fill="none" stroke="black" d="M2880.74,-1888.26C2763.6,-1875.1 2458.02,-1840.75 2338.29,-1827.3"/>
<polygon fill="black" stroke="black" points="2338.64,-1823.81 2328.31,-1826.18 2337.86,-1830.77 2338.64,-1823.81"/>
</g>
<!-- ShadeRec.cpp -->
<g id="node38" class="node"><title>ShadeRec.cpp</title>
<ellipse fill="none" stroke="black" cx="2300.33" cy="-2424.59" rx="61.1893" ry="18"/>
<text text-anchor="middle" x="2300.33" y="-2420.89" font-family="Times,serif" font-size="14.00">ShadeRec.cpp</text>
</g>
<!-- ShadeRec.cpp&#45;&gt;ShadeRec.h -->
<g id="edge64" class="edge"><title>ShadeRec.cpp&#45;&gt;ShadeRec.h</title>
<path fill="none" stroke="black" d="M2282.99,-2407.32C2193.29,-2318.01 1782.15,-1908.65 1676.64,-1803.6"/>
<polygon fill="black" stroke="black" points="1678.86,-1800.87 1669.3,-1796.29 1673.92,-1805.83 1678.86,-1800.87"/>
</g>
<!-- Light.cpp -->
<g id="node39" class="node"><title>Light.cpp</title>
<ellipse fill="none" stroke="black" cx="1181.18" cy="-52.366" rx="44.6926" ry="18"/>
<text text-anchor="middle" x="1181.18" y="-48.666" font-family="Times,serif" font-size="14.00">Light.cpp</text>
</g>
<!-- Light.cpp&#45;&gt;Light.h -->
<g id="edge74" class="edge"><title>Light.cpp&#45;&gt;Light.h</title>
<path fill="none" stroke="black" d="M1184.06,-70.693C1203.12,-192.197 1311.25,-881.276 1334.63,-1030.33"/>
<polygon fill="black" stroke="black" points="1331.22,-1031.15 1336.23,-1040.49 1338.14,-1030.07 1331.22,-1031.15"/>
</g>
<!-- GeometricObject.cpp -->
<g id="node40" class="node"><title>GeometricObject.cpp</title>
<ellipse fill="none" stroke="black" cx="1636.83" cy="-18" rx="87.1846" ry="18"/>
<text text-anchor="middle" x="1636.83" y="-14.3" font-family="Times,serif" font-size="14.00">GeometricObject.cpp</text>
</g>
<!-- GeometricObject.cpp&#45;&gt;GeometricObject.h -->
<g id="edge75" class="edge"><title>GeometricObject.cpp&#45;&gt;GeometricObject.h</title>
<path fill="none" stroke="black" d="M1637.26,-36.3202C1640.13,-157.78 1656.38,-846.604 1659.9,-995.603"/>
<polygon fill="black" stroke="black" points="1656.4,-995.843 1660.14,-1005.76 1663.4,-995.678 1656.4,-995.843"/>
</g>
<!-- Lambertian.cpp -->
<g id="node41" class="node"><title>Lambertian.cpp</title>
<ellipse fill="none" stroke="black" cx="2503.19" cy="-3471.04" rx="66.8882" ry="18"/>
<text text-anchor="middle" x="2503.19" y="-3467.34" font-family="Times,serif" font-size="14.00">Lambertian.cpp</text>
</g>
<!-- Lambertian.cpp&#45;&gt;Lambertian.h -->
<g id="edge76" class="edge"><title>Lambertian.cpp&#45;&gt;Lambertian.h</title>
<path fill="none" stroke="black" d="M2494.63,-3452.87C2446.2,-3349.99 2206.47,-2840.74 2148.06,-2716.68"/>
<polygon fill="black" stroke="black" points="2151.15,-2715.02 2143.72,-2707.46 2144.82,-2718 2151.15,-2715.02"/>
</g>
<!-- Directional.cpp -->
<g id="node42" class="node"><title>Directional.cpp</title>
<ellipse fill="none" stroke="black" cx="697.144" cy="-383.763" rx="65.7887" ry="18"/>
<text text-anchor="middle" x="697.144" y="-380.063" font-family="Times,serif" font-size="14.00">Directional.cpp</text>
</g>
<!-- Directional.cpp&#45;&gt;Directional.h -->
<g id="edge78" class="edge"><title>Directional.cpp&#45;&gt;Directional.h</title>
<path fill="none" stroke="black" d="M706.537,-401.851C762.033,-508.713 1046.86,-1057.18 1113.68,-1185.84"/>
<polygon fill="black" stroke="black" points="1110.74,-1187.77 1118.45,-1195.03 1116.95,-1184.54 1110.74,-1187.77"/>
</g>
<!-- Material.cpp -->
<g id="node43" class="node"><title>Material.cpp</title>
<ellipse fill="none" stroke="black" cx="969.548" cy="-442.143" rx="55.7903" ry="18"/>
<text text-anchor="middle" x="969.548" y="-438.443" font-family="Times,serif" font-size="14.00">Material.cpp</text>
</g>
<!-- Material.cpp&#45;&gt;Material.h -->
<g id="edge82" class="edge"><title>Material.cpp&#45;&gt;Material.h</title>
<path fill="none" stroke="black" d="M975.467,-460.342C1015.33,-582.918 1244.54,-1287.69 1293.3,-1437.61"/>
<polygon fill="black" stroke="black" points="1290.07,-1439.01 1296.49,-1447.43 1296.73,-1436.84 1290.07,-1439.01"/>
</g>
</g>
</svg>
