<?xml version="1.0" encoding="UTF-8" standalone="no"?>
<!DOCTYPE svg PUBLIC "-//W3C//DTD SVG 1.1//EN"
 "http://www.w3.org/Graphics/SVG/1.1/DTD/svg11.dtd">
<!-- Generated by graphviz version 2.36.0 (20140111.2315)
 -->
<!-- Title: source tree Pages: 1 -->
<svg width="576pt" height="717pt"
 viewBox="0.00 0.00 576.00 716.75" xmlns="http://www.w3.org/2000/svg" xmlns:xlink="http://www.w3.org/1999/xlink">
<g id="graph0" class="graph" transform="scale(0.312471 0.312471) rotate(0) translate(4 2289.83)">
<title>source tree</title>
<polygon fill="white" stroke="none" points="-4,4 -4,-2289.83 1839.37,-2289.83 1839.37,4 -4,4"/>
<!-- Directional.h -->
<g id="node1" class="node"><title>Directional.h</title>
<ellipse fill="none" stroke="black" cx="779.2" cy="-725.315" rx="57.3905" ry="18"/>
<text text-anchor="middle" x="779.2" y="-721.615" font-family="Times,serif" font-size="14.00">Directional.h</text>
</g>
<!-- RGBColor.h -->
<g id="node2" class="node"><title>RGBColor.h</title>
<ellipse fill="none" stroke="black" cx="796.136" cy="-1198.37" rx="55.7903" ry="18"/>
<text text-anchor="middle" x="796.136" y="-1194.67" font-family="Times,serif" font-size="14.00">RGBColor.h</text>
</g>
<!-- Directional.h&#45;&gt;RGBColor.h -->
<g id="edge1" class="edge"><title>Directional.h&#45;&gt;RGBColor.h</title>
<path fill="none" stroke="black" d="M779.854,-743.57C782.442,-815.86 791.984,-1082.4 795.126,-1170.15"/>
<polygon fill="black" stroke="black" points="791.629,-1170.3 795.484,-1180.17 798.624,-1170.05 791.629,-1170.3"/>
</g>
<!-- ShadeRec.h -->
<g id="node5" class="node"><title>ShadeRec.h</title>
<ellipse fill="none" stroke="black" cx="699.378" cy="-1088.33" rx="52.7911" ry="18"/>
<text text-anchor="middle" x="699.378" y="-1084.63" font-family="Times,serif" font-size="14.00">ShadeRec.h</text>
</g>
<!-- Directional.h&#45;&gt;ShadeRec.h -->
<g id="edge72" class="edge"><title>Directional.h&#45;&gt;ShadeRec.h</title>
<path fill="none" stroke="black" d="M775.242,-743.317C762.315,-802.103 721.274,-988.749 705.571,-1060.16"/>
<polygon fill="black" stroke="black" points="702.089,-1059.7 703.36,-1070.22 708.926,-1061.2 702.089,-1059.7"/>
</g>
<!-- Light.h -->
<g id="node9" class="node"><title>Light.h</title>
<ellipse fill="none" stroke="black" cx="783.116" cy="-880.245" rx="36.2938" ry="18"/>
<text text-anchor="middle" x="783.116" y="-876.545" font-family="Times,serif" font-size="14.00">Light.h</text>
</g>
<!-- Directional.h&#45;&gt;Light.h -->
<g id="edge61" class="edge"><title>Directional.h&#45;&gt;Light.h</title>
<path fill="none" stroke="black" d="M779.657,-743.391C780.328,-769.953 781.588,-819.797 782.388,-851.439"/>
<polygon fill="black" stroke="black" points="778.898,-851.896 782.65,-861.804 785.896,-851.719 778.898,-851.896"/>
</g>
<!-- World.h -->
<g id="node10" class="node"><title>World.h</title>
<ellipse fill="none" stroke="black" cx="988.695" cy="-935.233" rx="40.0939" ry="18"/>
<text text-anchor="middle" x="988.695" y="-931.533" font-family="Times,serif" font-size="14.00">World.h</text>
</g>
<!-- Directional.h&#45;&gt;World.h -->
<g id="edge60" class="edge"><title>Directional.h&#45;&gt;World.h</title>
<path fill="none" stroke="black" d="M791.645,-743.028C824.478,-781.212 913.386,-870.727 959.78,-912.788"/>
<polygon fill="black" stroke="black" points="957.599,-915.534 967.386,-919.592 962.267,-910.317 957.599,-915.534"/>
</g>
<!-- RayCast.h -->
<g id="node3" class="node"><title>RayCast.h</title>
<ellipse fill="none" stroke="black" cx="891.841" cy="-770.196" rx="47.3916" ry="18"/>
<text text-anchor="middle" x="891.841" y="-766.496" font-family="Times,serif" font-size="14.00">RayCast.h</text>
</g>
<!-- Tracer.h -->
<g id="node4" class="node"><title>Tracer.h</title>
<ellipse fill="none" stroke="black" cx="469.9" cy="-1041.54" rx="40.0939" ry="18"/>
<text text-anchor="middle" x="469.9" y="-1037.84" font-family="Times,serif" font-size="14.00">Tracer.h</text>
</g>
<!-- RayCast.h&#45;&gt;Tracer.h -->
<g id="edge2" class="edge"><title>RayCast.h&#45;&gt;Tracer.h</title>
<path fill="none" stroke="black" d="M867.64,-785.759C795.642,-832.06 582.789,-968.942 501.733,-1021.07"/>
<polygon fill="black" stroke="black" points="499.482,-1018.35 492.965,-1026.71 503.269,-1024.24 499.482,-1018.35"/>
</g>
<!-- Tracer.h&#45;&gt;RGBColor.h -->
<g id="edge54" class="edge"><title>Tracer.h&#45;&gt;RGBColor.h</title>
<path fill="none" stroke="black" d="M497.434,-1054.78C555.093,-1082.49 688.744,-1146.75 755.981,-1179.07"/>
<polygon fill="black" stroke="black" points="754.484,-1182.23 765.013,-1183.41 757.517,-1175.92 754.484,-1182.23"/>
</g>
<!-- Constants.h -->
<g id="node6" class="node"><title>Constants.h</title>
<ellipse fill="none" stroke="black" cx="782.981" cy="-1359.9" rx="51.9908" ry="18"/>
<text text-anchor="middle" x="782.981" y="-1356.2" font-family="Times,serif" font-size="14.00">Constants.h</text>
</g>
<!-- Tracer.h&#45;&gt;Constants.h -->
<g id="edge8" class="edge"><title>Tracer.h&#45;&gt;Constants.h</title>
<path fill="none" stroke="black" d="M486.292,-1058.21C537.933,-1110.72 697.444,-1272.92 758.689,-1335.2"/>
<polygon fill="black" stroke="black" points="756.485,-1337.95 765.992,-1342.63 761.476,-1333.04 756.485,-1337.95"/>
</g>
<!-- Ray.h -->
<g id="node13" class="node"><title>Ray.h</title>
<ellipse fill="none" stroke="black" cx="562.786" cy="-833.441" rx="31.6951" ry="18"/>
<text text-anchor="middle" x="562.786" y="-829.741" font-family="Times,serif" font-size="14.00">Ray.h</text>
</g>
<!-- Tracer.h&#45;&gt;Ray.h -->
<g id="edge13" class="edge"><title>Tracer.h&#45;&gt;Ray.h</title>
<path fill="none" stroke="black" d="M477.82,-1023.8C494.1,-987.323 531.415,-903.722 550.721,-860.47"/>
<polygon fill="black" stroke="black" points="554.006,-861.697 554.886,-851.139 547.614,-858.844 554.006,-861.697"/>
</g>
<!-- ShadeRec.h&#45;&gt;RGBColor.h -->
<g id="edge3" class="edge"><title>ShadeRec.h&#45;&gt;RGBColor.h</title>
<path fill="none" stroke="black" d="M714.924,-1106.01C730.864,-1124.14 755.808,-1152.51 773.847,-1173.02"/>
<polygon fill="black" stroke="black" points="771.397,-1175.54 780.629,-1180.74 776.654,-1170.92 771.397,-1175.54"/>
</g>
<!-- ShadeRec.h&#45;&gt;Constants.h -->
<g id="edge6" class="edge"><title>ShadeRec.h&#45;&gt;Constants.h</title>
<path fill="none" stroke="black" d="M704.993,-1106.57C719.301,-1153.05 757.205,-1276.17 774.346,-1331.85"/>
<polygon fill="black" stroke="black" points="771.103,-1333.21 777.39,-1341.74 777.793,-1331.15 771.103,-1333.21"/>
</g>
<!-- ShadeRec.h&#45;&gt;Ray.h -->
<g id="edge12" class="edge"><title>ShadeRec.h&#45;&gt;Ray.h</title>
<path fill="none" stroke="black" d="M689.773,-1070.41C666.049,-1026.13 604.592,-911.453 576.8,-859.592"/>
<polygon fill="black" stroke="black" points="579.827,-857.831 572.019,-850.67 573.657,-861.138 579.827,-857.831"/>
</g>
<!-- Constants.h&#45;&gt;RGBColor.h -->
<g id="edge4" class="edge"><title>Constants.h&#45;&gt;RGBColor.h</title>
<path fill="none" stroke="black" d="M784.464,-1341.69C786.744,-1313.69 791.128,-1259.87 793.826,-1226.74"/>
<polygon fill="black" stroke="black" points="797.314,-1227.02 794.638,-1216.77 790.338,-1226.45 797.314,-1227.02"/>
</g>
<!-- GeometricObject.h -->
<g id="node7" class="node"><title>GeometricObject.h</title>
<ellipse fill="none" stroke="black" cx="617.596" cy="-1269.9" rx="78.7863" ry="18"/>
<text text-anchor="middle" x="617.596" y="-1266.2" font-family="Times,serif" font-size="14.00">GeometricObject.h</text>
</g>
<!-- GeometricObject.h&#45;&gt;ShadeRec.h -->
<g id="edge5" class="edge"><title>GeometricObject.h&#45;&gt;ShadeRec.h</title>
<path fill="none" stroke="black" d="M625.737,-1251.83C640.127,-1219.88 670.133,-1153.26 687.065,-1115.67"/>
<polygon fill="black" stroke="black" points="690.355,-1116.88 691.27,-1106.33 683.972,-1114.01 690.355,-1116.88"/>
</g>
<!-- GeometricObject.h&#45;&gt;Constants.h -->
<g id="edge46" class="edge"><title>GeometricObject.h&#45;&gt;Constants.h</title>
<path fill="none" stroke="black" d="M648.316,-1286.62C675.88,-1301.62 716.399,-1323.67 745.786,-1339.66"/>
<polygon fill="black" stroke="black" points="744.449,-1342.92 754.906,-1344.62 747.795,-1336.77 744.449,-1342.92"/>
</g>
<!-- GeometricObject.h&#45;&gt;Ray.h -->
<g id="edge77" class="edge"><title>GeometricObject.h&#45;&gt;Ray.h</title>
<path fill="none" stroke="black" d="M615.311,-1251.71C606.779,-1183.77 576.752,-944.658 566.358,-861.89"/>
<polygon fill="black" stroke="black" points="569.8,-861.203 565.081,-851.717 562.854,-862.076 569.8,-861.203"/>
</g>
<!-- Material.h -->
<g id="node25" class="node"><title>Material.h</title>
<ellipse fill="none" stroke="black" cx="988.044" cy="-1342.6" rx="48.1917" ry="18"/>
<text text-anchor="middle" x="988.044" y="-1338.9" font-family="Times,serif" font-size="14.00">Material.h</text>
</g>
<!-- GeometricObject.h&#45;&gt;Material.h -->
<g id="edge73" class="edge"><title>GeometricObject.h&#45;&gt;Material.h</title>
<path fill="none" stroke="black" d="M677.527,-1281.67C748.912,-1295.67 867.039,-1318.86 935.165,-1332.22"/>
<polygon fill="black" stroke="black" points="934.762,-1335.71 945.249,-1334.2 936.11,-1328.84 934.762,-1335.71"/>
</g>
<!-- Sphere.h -->
<g id="node8" class="node"><title>Sphere.h</title>
<ellipse fill="none" stroke="black" cx="396.227" cy="-1564.12" rx="42.4939" ry="18"/>
<text text-anchor="middle" x="396.227" y="-1560.42" font-family="Times,serif" font-size="14.00">Sphere.h</text>
</g>
<!-- Sphere.h&#45;&gt;Constants.h -->
<g id="edge51" class="edge"><title>Sphere.h&#45;&gt;Constants.h</title>
<path fill="none" stroke="black" d="M422.81,-1550.08C490.13,-1514.53 667.507,-1420.87 745.397,-1379.75"/>
<polygon fill="black" stroke="black" points="747.18,-1382.76 754.389,-1375 743.911,-1376.57 747.18,-1382.76"/>
</g>
<!-- Sphere.h&#45;&gt;GeometricObject.h -->
<g id="edge7" class="edge"><title>Sphere.h&#45;&gt;GeometricObject.h</title>
<path fill="none" stroke="black" d="M409.412,-1546.59C446.85,-1496.84 553.946,-1354.5 598.151,-1295.75"/>
<polygon fill="black" stroke="black" points="600.985,-1297.8 604.201,-1287.71 595.392,-1293.59 600.985,-1297.8"/>
</g>
<!-- Light.h&#45;&gt;RGBColor.h -->
<g id="edge15" class="edge"><title>Light.h&#45;&gt;RGBColor.h</title>
<path fill="none" stroke="black" d="M783.853,-898.26C786.014,-951.068 792.347,-1105.79 794.973,-1169.97"/>
<polygon fill="black" stroke="black" points="791.485,-1170.31 795.391,-1180.16 798.479,-1170.03 791.485,-1170.31"/>
</g>
<!-- Light.h&#45;&gt;Constants.h -->
<g id="edge9" class="edge"><title>Light.h&#45;&gt;Constants.h</title>
<path fill="none" stroke="black" d="M783.11,-898.462C783.09,-971.399 783.014,-1242.68 782.989,-1331.53"/>
<polygon fill="black" stroke="black" points="779.489,-1331.66 782.986,-1341.67 786.489,-1331.67 779.489,-1331.66"/>
</g>
<!-- Light.h&#45;&gt;Ray.h -->
<g id="edge40" class="edge"><title>Light.h&#45;&gt;Ray.h</title>
<path fill="none" stroke="black" d="M749.652,-873.136C710.171,-864.75 644.598,-850.82 602.558,-841.89"/>
<polygon fill="black" stroke="black" points="603.176,-838.443 592.667,-839.789 601.721,-845.29 603.176,-838.443"/>
</g>
<!-- World.h&#45;&gt;Directional.h -->
<g id="edge30" class="edge"><title>World.h&#45;&gt;Directional.h</title>
<path fill="none" stroke="black" d="M976.56,-917.882C944.251,-880.22 856.138,-791.447 809.285,-748.823"/>
<polygon fill="black" stroke="black" points="811.365,-745.986 801.587,-741.908 806.687,-751.194 811.365,-745.986"/>
</g>
<!-- World.h&#45;&gt;RGBColor.h -->
<g id="edge24" class="edge"><title>World.h&#45;&gt;RGBColor.h</title>
<path fill="none" stroke="black" d="M976.061,-952.499C943.089,-997.555 854.29,-1118.9 815.13,-1172.42"/>
<polygon fill="black" stroke="black" points="812.15,-1170.56 809.069,-1180.7 817.799,-1174.7 812.15,-1170.56"/>
</g>
<!-- World.h&#45;&gt;RayCast.h -->
<g id="edge74" class="edge"><title>World.h&#45;&gt;RayCast.h</title>
<path fill="none" stroke="black" d="M978.33,-917.571C961.335,-888.612 927.445,-830.864 907.506,-796.889"/>
<polygon fill="black" stroke="black" points="910.358,-794.833 902.278,-787.98 904.321,-798.376 910.358,-794.833"/>
</g>
<!-- World.h&#45;&gt;ShadeRec.h -->
<g id="edge63" class="edge"><title>World.h&#45;&gt;ShadeRec.h</title>
<path fill="none" stroke="black" d="M962.51,-949.09C911.149,-976.268 797.013,-1036.66 737.359,-1068.23"/>
<polygon fill="black" stroke="black" points="735.473,-1065.27 728.271,-1073.04 738.747,-1071.46 735.473,-1065.27"/>
</g>
<!-- World.h&#45;&gt;Constants.h -->
<g id="edge37" class="edge"><title>World.h&#45;&gt;Constants.h</title>
<path fill="none" stroke="black" d="M980.118,-952.94C948.032,-1019.18 834.939,-1252.64 796.152,-1332.71"/>
<polygon fill="black" stroke="black" points="792.805,-1331.59 791.595,-1342.12 799.104,-1334.64 792.805,-1331.59"/>
</g>
<!-- World.h&#45;&gt;GeometricObject.h -->
<g id="edge32" class="edge"><title>World.h&#45;&gt;GeometricObject.h</title>
<path fill="none" stroke="black" d="M970.796,-951.375C910.85,-1005.44 716.88,-1180.37 644.852,-1245.32"/>
<polygon fill="black" stroke="black" points="642.165,-1243.03 637.082,-1252.33 646.853,-1248.23 642.165,-1243.03"/>
</g>
<!-- World.h&#45;&gt;Light.h -->
<g id="edge75" class="edge"><title>World.h&#45;&gt;Light.h</title>
<path fill="none" stroke="black" d="M953.821,-925.905C918.278,-916.398 863.123,-901.645 825.179,-891.496"/>
<polygon fill="black" stroke="black" points="826.011,-888.095 815.446,-888.893 824.202,-894.858 826.011,-888.095"/>
</g>
<!-- Camera.h -->
<g id="node11" class="node"><title>Camera.h</title>
<ellipse fill="none" stroke="black" cx="1409.57" cy="-961.037" rx="45.4919" ry="18"/>
<text text-anchor="middle" x="1409.57" y="-957.337" font-family="Times,serif" font-size="14.00">Camera.h</text>
</g>
<!-- World.h&#45;&gt;Camera.h -->
<g id="edge10" class="edge"><title>World.h&#45;&gt;Camera.h</title>
<path fill="none" stroke="black" d="M1028.67,-937.684C1104.29,-942.32 1268.38,-952.381 1354.41,-957.655"/>
<polygon fill="black" stroke="black" points="1354.31,-961.155 1364.51,-958.274 1354.74,-954.169 1354.31,-961.155"/>
</g>
<!-- ViewPlane.h -->
<g id="node12" class="node"><title>ViewPlane.h</title>
<ellipse fill="none" stroke="black" cx="1211.24" cy="-482.145" rx="55.7903" ry="18"/>
<text text-anchor="middle" x="1211.24" y="-478.445" font-family="Times,serif" font-size="14.00">ViewPlane.h</text>
</g>
<!-- World.h&#45;&gt;ViewPlane.h -->
<g id="edge11" class="edge"><title>World.h&#45;&gt;ViewPlane.h</title>
<path fill="none" stroke="black" d="M997.419,-917.472C1031.59,-847.909 1156.46,-593.689 1197.83,-509.459"/>
<polygon fill="black" stroke="black" points="1201.07,-510.795 1202.34,-500.276 1194.79,-507.709 1201.07,-510.795"/>
</g>
<!-- World.h&#45;&gt;Ray.h -->
<g id="edge80" class="edge"><title>World.h&#45;&gt;Ray.h</title>
<path fill="none" stroke="black" d="M953.115,-926.73C874.123,-907.851 684.606,-862.556 602.183,-842.857"/>
<polygon fill="black" stroke="black" points="602.752,-839.395 592.212,-840.474 601.125,-846.203 602.752,-839.395"/>
</g>
<!-- Pinhole.h -->
<g id="node17" class="node"><title>Pinhole.h</title>
<ellipse fill="none" stroke="black" cx="1230.43" cy="-1225.65" rx="44.393" ry="18"/>
<text text-anchor="middle" x="1230.43" y="-1221.95" font-family="Times,serif" font-size="14.00">Pinhole.h</text>
</g>
<!-- World.h&#45;&gt;Pinhole.h -->
<g id="edge66" class="edge"><title>World.h&#45;&gt;Pinhole.h</title>
<path fill="none" stroke="black" d="M999.184,-952.935C1035.09,-1002.86 1152.5,-1144.37 1204.92,-1201.44"/>
<polygon fill="black" stroke="black" points="1202.49,-1203.97 1211.87,-1208.91 1207.62,-1199.2 1202.49,-1203.97"/>
</g>
<!-- Ambient.h -->
<g id="node28" class="node"><title>Ambient.h</title>
<ellipse fill="none" stroke="black" cx="1204.7" cy="-640.27" rx="48.9926" ry="18"/>
<text text-anchor="middle" x="1204.7" y="-636.57" font-family="Times,serif" font-size="14.00">Ambient.h</text>
</g>
<!-- World.h&#45;&gt;Ambient.h -->
<g id="edge35" class="edge"><title>World.h&#45;&gt;Ambient.h</title>
<path fill="none" stroke="black" d="M1001.24,-918.1C1037.47,-868.63 1142.4,-725.341 1185.69,-666.235"/>
<polygon fill="black" stroke="black" points="1188.76,-667.958 1191.85,-657.822 1183.12,-663.822 1188.76,-667.958"/>
</g>
<!-- MultipleObjects.h -->
<g id="node32" class="node"><title>MultipleObjects.h</title>
<ellipse fill="none" stroke="black" cx="682.457" cy="-583.086" rx="75.2868" ry="18"/>
<text text-anchor="middle" x="682.457" y="-579.386" font-family="Times,serif" font-size="14.00">MultipleObjects.h</text>
</g>
<!-- World.h&#45;&gt;MultipleObjects.h -->
<g id="edge70" class="edge"><title>World.h&#45;&gt;MultipleObjects.h</title>
<path fill="none" stroke="black" d="M973.925,-918.249C924.327,-861.215 763.55,-676.337 704.485,-608.417"/>
<polygon fill="black" stroke="black" points="707.004,-605.979 697.801,-600.73 701.722,-610.573 707.004,-605.979"/>
</g>
<!-- Matte.h -->
<g id="node34" class="node"><title>Matte.h</title>
<ellipse fill="none" stroke="black" cx="1210.45" cy="-1410.5" rx="38.1938" ry="18"/>
<text text-anchor="middle" x="1210.45" y="-1406.8" font-family="Times,serif" font-size="14.00">Matte.h</text>
</g>
<!-- World.h&#45;&gt;Matte.h -->
<g id="edge48" class="edge"><title>World.h&#45;&gt;Matte.h</title>
<path fill="none" stroke="black" d="M996.983,-952.997C1030.67,-1025.2 1157.48,-1296.98 1197.95,-1383.72"/>
<polygon fill="black" stroke="black" points="1194.83,-1385.32 1202.23,-1392.9 1201.18,-1382.36 1194.83,-1385.32"/>
</g>
<!-- BuildShadedObjects.cpp -->
<g id="node14" class="node"><title>BuildShadedObjects.cpp</title>
<ellipse fill="none" stroke="black" cx="1023.19" cy="-1178.8" rx="98.2828" ry="18"/>
<text text-anchor="middle" x="1023.19" y="-1175.1" font-family="Times,serif" font-size="14.00">BuildShadedObjects.cpp</text>
</g>
<!-- BuildShadedObjects.cpp&#45;&gt;Directional.h -->
<g id="edge53" class="edge"><title>BuildShadedObjects.cpp&#45;&gt;Directional.h</title>
<path fill="none" stroke="black" d="M1013.48,-1160.74C975.756,-1090.63 838.868,-836.213 793.741,-752.341"/>
<polygon fill="black" stroke="black" points="796.763,-750.572 788.943,-743.424 790.599,-753.888 796.763,-750.572"/>
</g>
<!-- BuildShadedObjects.cpp&#45;&gt;RayCast.h -->
<g id="edge38" class="edge"><title>BuildShadedObjects.cpp&#45;&gt;RayCast.h</title>
<path fill="none" stroke="black" d="M1017.38,-1160.72C996.567,-1095.97 925.686,-875.482 900.67,-797.663"/>
<polygon fill="black" stroke="black" points="903.98,-796.52 897.587,-788.071 897.315,-798.663 903.98,-796.52"/>
</g>
<!-- BuildShadedObjects.cpp&#45;&gt;World.h -->
<g id="edge14" class="edge"><title>BuildShadedObjects.cpp&#45;&gt;World.h</title>
<path fill="none" stroke="black" d="M1020.6,-1160.49C1014.63,-1118.34 999.875,-1014.16 992.717,-963.632"/>
<polygon fill="black" stroke="black" points="996.139,-962.831 991.271,-953.421 989.208,-963.813 996.139,-962.831"/>
</g>
<!-- Plane.h -->
<g id="node15" class="node"><title>Plane.h</title>
<ellipse fill="none" stroke="black" cx="743.045" cy="-1661.9" rx="37.0935" ry="18"/>
<text text-anchor="middle" x="743.045" y="-1658.2" font-family="Times,serif" font-size="14.00">Plane.h</text>
</g>
<!-- BuildShadedObjects.cpp&#45;&gt;Plane.h -->
<g id="edge17" class="edge"><title>BuildShadedObjects.cpp&#45;&gt;Plane.h</title>
<path fill="none" stroke="black" d="M1012.72,-1196.86C969.977,-1270.57 808.587,-1548.87 758.182,-1635.79"/>
<polygon fill="black" stroke="black" points="755.114,-1634.11 753.125,-1644.51 761.169,-1637.62 755.114,-1634.11"/>
</g>
<!-- BuildShadedObjects.cpp&#45;&gt;Pinhole.h -->
<g id="edge19" class="edge"><title>BuildShadedObjects.cpp&#45;&gt;Pinhole.h</title>
<path fill="none" stroke="black" d="M1085.09,-1192.79C1116.03,-1199.79 1152.93,-1208.13 1181.81,-1214.66"/>
<polygon fill="black" stroke="black" points="1181.14,-1218.1 1191.66,-1216.89 1182.68,-1211.27 1181.14,-1218.1"/>
</g>
<!-- BuildShadedObjects.cpp&#45;&gt;Matte.h -->
<g id="edge68" class="edge"><title>BuildShadedObjects.cpp&#45;&gt;Matte.h</title>
<path fill="none" stroke="black" d="M1037.89,-1196.98C1071.23,-1238.24 1152.67,-1339.02 1190.51,-1385.84"/>
<polygon fill="black" stroke="black" points="1187.83,-1388.09 1196.84,-1393.67 1193.27,-1383.69 1187.83,-1388.09"/>
</g>
<!-- Plane.h&#45;&gt;Constants.h -->
<g id="edge16" class="edge"><title>Plane.h&#45;&gt;Constants.h</title>
<path fill="none" stroke="black" d="M745.424,-1643.91C752.109,-1593.36 771.104,-1449.72 779.224,-1388.31"/>
<polygon fill="black" stroke="black" points="782.723,-1388.55 780.564,-1378.18 775.784,-1387.63 782.723,-1388.55"/>
</g>
<!-- Plane.h&#45;&gt;GeometricObject.h -->
<g id="edge57" class="edge"><title>Plane.h&#45;&gt;GeometricObject.h</title>
<path fill="none" stroke="black" d="M737.329,-1644.03C717.369,-1581.67 650.677,-1373.27 626.47,-1297.63"/>
<polygon fill="black" stroke="black" points="629.728,-1296.33 623.346,-1287.87 623.061,-1298.46 629.728,-1296.33"/>
</g>
<!-- BRDF.h -->
<g id="node16" class="node"><title>BRDF.h</title>
<ellipse fill="none" stroke="black" cx="613.129" cy="-1605.09" rx="40.0939" ry="18"/>
<text text-anchor="middle" x="613.129" y="-1601.39" font-family="Times,serif" font-size="14.00">BRDF.h</text>
</g>
<!-- BRDF.h&#45;&gt;RGBColor.h -->
<g id="edge64" class="edge"><title>BRDF.h&#45;&gt;RGBColor.h</title>
<path fill="none" stroke="black" d="M621.11,-1587.35C649.948,-1523.26 748.884,-1303.39 783.808,-1225.77"/>
<polygon fill="black" stroke="black" points="787.201,-1226.76 788.113,-1216.2 780.818,-1223.89 787.201,-1226.76"/>
</g>
<!-- BRDF.h&#45;&gt;ShadeRec.h -->
<g id="edge18" class="edge"><title>BRDF.h&#45;&gt;ShadeRec.h</title>
<path fill="none" stroke="black" d="M616.148,-1587C628.981,-1510.11 679.056,-1210.09 694.689,-1116.42"/>
<polygon fill="black" stroke="black" points="698.144,-1116.98 696.339,-1106.54 691.24,-1115.83 698.144,-1116.98"/>
</g>
<!-- BRDF.h&#45;&gt;Constants.h -->
<g id="edge47" class="edge"><title>BRDF.h&#45;&gt;Constants.h</title>
<path fill="none" stroke="black" d="M625.073,-1587.85C654.421,-1545.48 730.207,-1436.08 765.015,-1385.83"/>
<polygon fill="black" stroke="black" points="768.006,-1387.66 770.823,-1377.45 762.252,-1383.68 768.006,-1387.66"/>
</g>
<!-- Pinhole.h&#45;&gt;Constants.h -->
<g id="edge20" class="edge"><title>Pinhole.h&#45;&gt;Constants.h</title>
<path fill="none" stroke="black" d="M1194.57,-1236.41C1114.92,-1260.31 923.134,-1317.85 832.289,-1345.11"/>
<polygon fill="black" stroke="black" points="831.081,-1341.82 822.509,-1348.04 833.093,-1348.52 831.081,-1341.82"/>
</g>
<!-- Pinhole.h&#45;&gt;World.h -->
<g id="edge49" class="edge"><title>Pinhole.h&#45;&gt;World.h</title>
<path fill="none" stroke="black" d="M1219.94,-1207.95C1183.95,-1157.91 1066.06,-1015.84 1013.84,-959.045"/>
<polygon fill="black" stroke="black" points="1016.29,-956.548 1006.92,-951.615 1011.17,-961.318 1016.29,-956.548"/>
</g>
<!-- Pinhole.h&#45;&gt;Camera.h -->
<g id="edge43" class="edge"><title>Pinhole.h&#45;&gt;Camera.h</title>
<path fill="none" stroke="black" d="M1242.19,-1208.29C1272.93,-1162.87 1355.87,-1040.37 1392.16,-986.752"/>
<polygon fill="black" stroke="black" points="1395.07,-988.706 1397.77,-978.463 1389.27,-984.782 1395.07,-988.706"/>
</g>
<!-- Light.cpp -->
<g id="node18" class="node"><title>Light.cpp</title>
<ellipse fill="none" stroke="black" cx="486.134" cy="-379.362" rx="44.6926" ry="18"/>
<text text-anchor="middle" x="486.134" y="-375.662" font-family="Times,serif" font-size="14.00">Light.cpp</text>
</g>
<!-- Light.cpp&#45;&gt;Light.h -->
<g id="edge21" class="edge"><title>Light.cpp&#45;&gt;Light.h</title>
<path fill="none" stroke="black" d="M496.529,-396.895C540.901,-471.731 714.578,-764.651 767.636,-854.137"/>
<polygon fill="black" stroke="black" points="764.694,-856.037 772.804,-862.854 770.715,-852.467 764.694,-856.037"/>
</g>
<!-- BRDF.cpp -->
<g id="node19" class="node"><title>BRDF.cpp</title>
<ellipse fill="none" stroke="black" cx="369.271" cy="-1994.18" rx="48.9926" ry="18"/>
<text text-anchor="middle" x="369.271" y="-1990.48" font-family="Times,serif" font-size="14.00">BRDF.cpp</text>
</g>
<!-- BRDF.cpp&#45;&gt;BRDF.h -->
<g id="edge22" class="edge"><title>BRDF.cpp&#45;&gt;BRDF.h</title>
<path fill="none" stroke="black" d="M380.383,-1976.45C419.431,-1914.15 550.486,-1705.04 596.771,-1631.19"/>
<polygon fill="black" stroke="black" points="599.886,-1632.81 602.231,-1622.48 593.955,-1629.09 599.886,-1632.81"/>
</g>
<!-- MultipleObjects.cpp -->
<g id="node20" class="node"><title>MultipleObjects.cpp</title>
<ellipse fill="none" stroke="black" cx="906.628" cy="-451.573" rx="83.3857" ry="18"/>
<text text-anchor="middle" x="906.628" y="-447.873" font-family="Times,serif" font-size="14.00">MultipleObjects.cpp</text>
</g>
<!-- MultipleObjects.cpp&#45;&gt;World.h -->
<g id="edge23" class="edge"><title>MultipleObjects.cpp&#45;&gt;World.h</title>
<path fill="none" stroke="black" d="M909.695,-469.651C922.125,-542.901 968.798,-817.967 983.928,-907.138"/>
<polygon fill="black" stroke="black" points="980.489,-907.792 985.612,-917.065 987.39,-906.621 980.489,-907.792"/>
</g>
<!-- MultipleObjects.cpp&#45;&gt;MultipleObjects.h -->
<g id="edge59" class="edge"><title>MultipleObjects.cpp&#45;&gt;MultipleObjects.h</title>
<path fill="none" stroke="black" d="M877.781,-468.497C837.511,-492.122 764.402,-535.012 719.952,-561.089"/>
<polygon fill="black" stroke="black" points="718.048,-558.148 711.194,-566.227 721.59,-564.186 718.048,-558.148"/>
</g>
<!-- Tracer.cpp -->
<g id="node21" class="node"><title>Tracer.cpp</title>
<ellipse fill="none" stroke="black" cx="48.7457" cy="-965.214" rx="48.9926" ry="18"/>
<text text-anchor="middle" x="48.7457" y="-961.514" font-family="Times,serif" font-size="14.00">Tracer.cpp</text>
</g>
<!-- Tracer.cpp&#45;&gt;Tracer.h -->
<g id="edge25" class="edge"><title>Tracer.cpp&#45;&gt;Tracer.h</title>
<path fill="none" stroke="black" d="M92.6247,-973.166C172.329,-987.611 340.231,-1018.04 422.474,-1032.94"/>
<polygon fill="black" stroke="black" points="422.079,-1036.43 432.543,-1034.77 423.327,-1029.54 422.079,-1036.43"/>
</g>
<!-- Lambertian.cpp -->
<g id="node22" class="node"><title>Lambertian.cpp</title>
<ellipse fill="none" stroke="black" cx="1024.95" cy="-2267.83" rx="66.8882" ry="18"/>
<text text-anchor="middle" x="1024.95" y="-2264.13" font-family="Times,serif" font-size="14.00">Lambertian.cpp</text>
</g>
<!-- Lambertian.h -->
<g id="node23" class="node"><title>Lambertian.h</title>
<ellipse fill="none" stroke="black" cx="926.885" cy="-1810.76" rx="58.4896" ry="18"/>
<text text-anchor="middle" x="926.885" y="-1807.06" font-family="Times,serif" font-size="14.00">Lambertian.h</text>
</g>
<!-- Lambertian.cpp&#45;&gt;Lambertian.h -->
<g id="edge26" class="edge"><title>Lambertian.cpp&#45;&gt;Lambertian.h</title>
<path fill="none" stroke="black" d="M1021.05,-2249.63C1005.95,-2179.25 951.312,-1924.62 932.951,-1839.04"/>
<polygon fill="black" stroke="black" points="936.321,-1838.06 930.801,-1829.02 929.476,-1839.53 936.321,-1838.06"/>
</g>
<!-- Lambertian.h&#45;&gt;Constants.h -->
<g id="edge78" class="edge"><title>Lambertian.h&#45;&gt;Constants.h</title>
<path fill="none" stroke="black" d="M921.155,-1792.81C898.975,-1723.32 818.663,-1471.7 791.801,-1387.54"/>
<polygon fill="black" stroke="black" points="795.102,-1386.37 788.727,-1377.91 788.434,-1388.5 795.102,-1386.37"/>
</g>
<!-- Lambertian.h&#45;&gt;BRDF.h -->
<g id="edge34" class="edge"><title>Lambertian.h&#45;&gt;BRDF.h</title>
<path fill="none" stroke="black" d="M902.002,-1794.45C845.362,-1757.32 706.902,-1666.56 644.514,-1625.66"/>
<polygon fill="black" stroke="black" points="646.162,-1622.56 635.88,-1620 642.324,-1628.41 646.162,-1622.56"/>
</g>
<!-- Camera.cpp -->
<g id="node24" class="node"><title>Camera.cpp</title>
<ellipse fill="none" stroke="black" cx="1781.43" cy="-848.671" rx="53.8905" ry="18"/>
<text text-anchor="middle" x="1781.43" y="-844.971" font-family="Times,serif" font-size="14.00">Camera.cpp</text>
</g>
<!-- Camera.cpp&#45;&gt;Camera.h -->
<g id="edge27" class="edge"><title>Camera.cpp&#45;&gt;Camera.h</title>
<path fill="none" stroke="black" d="M1741.28,-860.803C1671.78,-881.805 1529.44,-924.817 1455.87,-947.046"/>
<polygon fill="black" stroke="black" points="1454.52,-943.797 1445.96,-950.04 1456.55,-950.498 1454.52,-943.797"/>
</g>
<!-- Material.h&#45;&gt;RGBColor.h -->
<g id="edge33" class="edge"><title>Material.h&#45;&gt;RGBColor.h</title>
<path fill="none" stroke="black" d="M966.402,-1326.34C932.228,-1300.65 865.649,-1250.62 826.64,-1221.3"/>
<polygon fill="black" stroke="black" points="828.385,-1218.23 818.289,-1215.02 824.18,-1223.83 828.385,-1218.23"/>
</g>
<!-- Material.h&#45;&gt;ShadeRec.h -->
<g id="edge44" class="edge"><title>Material.h&#45;&gt;ShadeRec.h</title>
<path fill="none" stroke="black" d="M969.103,-1325.92C919.268,-1282.02 784.355,-1163.18 726.414,-1112.14"/>
<polygon fill="black" stroke="black" points="728.584,-1109.39 718.766,-1105.41 723.957,-1114.64 728.584,-1109.39"/>
</g>
<!-- Material.h&#45;&gt;World.h -->
<g id="edge28" class="edge"><title>Material.h&#45;&gt;World.h</title>
<path fill="none" stroke="black" d="M988.072,-1324.57C988.175,-1260.3 988.524,-1042.1 988.65,-963.631"/>
<polygon fill="black" stroke="black" points="992.15,-963.523 988.666,-953.517 985.15,-963.511 992.15,-963.523"/>
</g>
<!-- main.cpp -->
<g id="node26" class="node"><title>main.cpp</title>
<ellipse fill="none" stroke="black" cx="1345.48" cy="-791.096" rx="44.393" ry="18"/>
<text text-anchor="middle" x="1345.48" y="-787.396" font-family="Times,serif" font-size="14.00">main.cpp</text>
</g>
<!-- main.cpp&#45;&gt;World.h -->
<g id="edge29" class="edge"><title>main.cpp&#45;&gt;World.h</title>
<path fill="none" stroke="black" d="M1313.82,-803.887C1248.67,-830.208 1099.73,-890.377 1028.31,-919.228"/>
<polygon fill="black" stroke="black" points="1026.73,-916.093 1018.77,-923.084 1029.35,-922.583 1026.73,-916.093"/>
</g>
<!-- Ambient.cpp -->
<g id="node27" class="node"><title>Ambient.cpp</title>
<ellipse fill="none" stroke="black" cx="1525.21" cy="-297.458" rx="57.3905" ry="18"/>
<text text-anchor="middle" x="1525.21" y="-293.758" font-family="Times,serif" font-size="14.00">Ambient.cpp</text>
</g>
<!-- Ambient.cpp&#45;&gt;Ambient.h -->
<g id="edge31" class="edge"><title>Ambient.cpp&#45;&gt;Ambient.h</title>
<path fill="none" stroke="black" d="M1508.88,-314.929C1455.92,-371.57 1288.88,-550.236 1227.56,-615.819"/>
<polygon fill="black" stroke="black" points="1224.89,-613.546 1220.62,-623.241 1230.01,-618.326 1224.89,-613.546"/>
</g>
<!-- Ambient.h&#45;&gt;Light.h -->
<g id="edge76" class="edge"><title>Ambient.h&#45;&gt;Light.h</title>
<path fill="none" stroke="black" d="M1178.01,-655.464C1104.02,-697.577 896.488,-815.711 815.791,-861.645"/>
<polygon fill="black" stroke="black" points="814.001,-858.637 807.041,-866.626 817.464,-864.721 814.001,-858.637"/>
</g>
<!-- Ray.cpp -->
<g id="node29" class="node"><title>Ray.cpp</title>
<ellipse fill="none" stroke="black" cx="240.324" cy="-518.153" rx="40.0939" ry="18"/>
<text text-anchor="middle" x="240.324" y="-514.453" font-family="Times,serif" font-size="14.00">Ray.cpp</text>
</g>
<!-- Ray.cpp&#45;&gt;Ray.h -->
<g id="edge36" class="edge"><title>Ray.cpp&#45;&gt;Ray.h</title>
<path fill="none" stroke="black" d="M257.207,-534.661C310.893,-587.152 477.766,-750.313 539.508,-810.681"/>
<polygon fill="black" stroke="black" points="537.239,-813.358 546.836,-817.846 542.133,-808.353 537.239,-813.358"/>
</g>
<!-- Directional.cpp -->
<g id="node30" class="node"><title>Directional.cpp</title>
<ellipse fill="none" stroke="black" cx="668.394" cy="-183.255" rx="65.7887" ry="18"/>
<text text-anchor="middle" x="668.394" y="-179.555" font-family="Times,serif" font-size="14.00">Directional.cpp</text>
</g>
<!-- Directional.cpp&#45;&gt;Directional.h -->
<g id="edge39" class="edge"><title>Directional.cpp&#45;&gt;Directional.h</title>
<path fill="none" stroke="black" d="M672.081,-201.29C688.332,-280.793 753.644,-600.296 773.467,-697.269"/>
<polygon fill="black" stroke="black" points="770.067,-698.116 775.499,-707.212 776.926,-696.714 770.067,-698.116"/>
</g>
<!-- RayCast.cpp -->
<g id="node31" class="node"><title>RayCast.cpp</title>
<ellipse fill="none" stroke="black" cx="1127.08" cy="-1010.54" rx="55.7903" ry="18"/>
<text text-anchor="middle" x="1127.08" y="-1006.84" font-family="Times,serif" font-size="14.00">RayCast.cpp</text>
</g>
<!-- RayCast.cpp&#45;&gt;RayCast.h -->
<g id="edge71" class="edge"><title>RayCast.cpp&#45;&gt;RayCast.h</title>
<path fill="none" stroke="black" d="M1110.17,-993.252C1068.97,-951.159 963.328,-843.232 915.728,-794.601"/>
<polygon fill="black" stroke="black" points="918.102,-792.022 908.606,-787.324 913.099,-796.919 918.102,-792.022"/>
</g>
<!-- RayCast.cpp&#45;&gt;ShadeRec.h -->
<g id="edge62" class="edge"><title>RayCast.cpp&#45;&gt;ShadeRec.h</title>
<path fill="none" stroke="black" d="M1078.02,-1019.46C998.108,-1033.99 840.298,-1062.7 755.845,-1078.06"/>
<polygon fill="black" stroke="black" points="755.132,-1074.63 745.919,-1079.86 756.384,-1081.52 755.132,-1074.63"/>
</g>
<!-- RayCast.cpp&#45;&gt;World.h -->
<g id="edge56" class="edge"><title>RayCast.cpp&#45;&gt;World.h</title>
<path fill="none" stroke="black" d="M1098.41,-994.934C1076.6,-983.068 1046.51,-966.691 1023.35,-954.091"/>
<polygon fill="black" stroke="black" points="1024.99,-950.998 1014.53,-949.292 1021.64,-957.146 1024.99,-950.998"/>
</g>
<!-- RayCast.cpp&#45;&gt;Material.h -->
<g id="edge41" class="edge"><title>RayCast.cpp&#45;&gt;Material.h</title>
<path fill="none" stroke="black" d="M1119.61,-1028.39C1096.65,-1083.23 1027.02,-1249.51 999.457,-1315.34"/>
<polygon fill="black" stroke="black" points="996.19,-1314.08 995.556,-1324.66 1002.65,-1316.79 996.19,-1314.08"/>
</g>
<!-- MultipleObjects.h&#45;&gt;Tracer.h -->
<g id="edge42" class="edge"><title>MultipleObjects.h&#45;&gt;Tracer.h</title>
<path fill="none" stroke="black" d="M674.124,-601.058C641.417,-671.603 521.689,-929.839 482.447,-1014.48"/>
<polygon fill="black" stroke="black" points="479.206,-1013.15 478.175,-1023.69 485.557,-1016.09 479.206,-1013.15"/>
</g>
<!-- GeometricObject.cpp -->
<g id="node33" class="node"><title>GeometricObject.cpp</title>
<ellipse fill="none" stroke="black" cx="208.727" cy="-1324.61" rx="87.1846" ry="18"/>
<text text-anchor="middle" x="208.727" y="-1320.91" font-family="Times,serif" font-size="14.00">GeometricObject.cpp</text>
</g>
<!-- GeometricObject.cpp&#45;&gt;GeometricObject.h -->
<g id="edge45" class="edge"><title>GeometricObject.cpp&#45;&gt;GeometricObject.h</title>
<path fill="none" stroke="black" d="M282.297,-1314.77C354.76,-1305.07 465.067,-1290.31 539.167,-1280.4"/>
<polygon fill="black" stroke="black" points="539.927,-1283.83 549.375,-1279.03 538.999,-1276.89 539.927,-1283.83"/>
</g>
<!-- Matte.h&#45;&gt;Lambertian.h -->
<g id="edge82" class="edge"><title>Matte.h&#45;&gt;Lambertian.h</title>
<path fill="none" stroke="black" d="M1198.26,-1427.7C1153.75,-1490.54 999.7,-1707.98 945.736,-1784.15"/>
<polygon fill="black" stroke="black" points="942.591,-1782.54 939.666,-1792.72 948.303,-1786.59 942.591,-1782.54"/>
</g>
<!-- Matte.h&#45;&gt;Material.h -->
<g id="edge67" class="edge"><title>Matte.h&#45;&gt;Material.h</title>
<path fill="none" stroke="black" d="M1178.11,-1400.63C1140.55,-1389.16 1078.28,-1370.15 1035.3,-1357.03"/>
<polygon fill="black" stroke="black" points="1036.22,-1353.65 1025.63,-1354.08 1034.17,-1360.34 1036.22,-1353.65"/>
</g>
<!-- RGBColor.cpp -->
<g id="node35" class="node"><title>RGBColor.cpp</title>
<ellipse fill="none" stroke="black" cx="1025.16" cy="-1717.3" rx="63.8893" ry="18"/>
<text text-anchor="middle" x="1025.16" y="-1713.6" font-family="Times,serif" font-size="14.00">RGBColor.cpp</text>
</g>
<!-- RGBColor.cpp&#45;&gt;RGBColor.h -->
<g id="edge50" class="edge"><title>RGBColor.cpp&#45;&gt;RGBColor.h</title>
<path fill="none" stroke="black" d="M1017.28,-1699.44C983.317,-1622.49 849.37,-1318.99 808.223,-1225.76"/>
<polygon fill="black" stroke="black" points="811.344,-1224.16 804.105,-1216.43 804.94,-1226.99 811.344,-1224.16"/>
</g>
<!-- ViewPlane.cpp -->
<g id="node36" class="node"><title>ViewPlane.cpp</title>
<ellipse fill="none" stroke="black" cx="1294.4" cy="-18" rx="64.189" ry="18"/>
<text text-anchor="middle" x="1294.4" y="-14.3" font-family="Times,serif" font-size="14.00">ViewPlane.cpp</text>
</g>
<!-- ViewPlane.cpp&#45;&gt;ViewPlane.h -->
<g id="edge52" class="edge"><title>ViewPlane.cpp&#45;&gt;ViewPlane.h</title>
<path fill="none" stroke="black" d="M1291.14,-36.195C1278.37,-107.471 1231.69,-367.997 1216.25,-454.222"/>
<polygon fill="black" stroke="black" points="1212.8,-453.615 1214.48,-464.075 1219.69,-454.849 1212.8,-453.615"/>
</g>
<!-- Matte.cpp -->
<g id="node37" class="node"><title>Matte.cpp</title>
<ellipse fill="none" stroke="black" cx="1563.3" cy="-1639.48" rx="46.5926" ry="18"/>
<text text-anchor="middle" x="1563.3" y="-1635.78" font-family="Times,serif" font-size="14.00">Matte.cpp</text>
</g>
<!-- Matte.cpp&#45;&gt;Matte.h -->
<g id="edge55" class="edge"><title>Matte.cpp&#45;&gt;Matte.h</title>
<path fill="none" stroke="black" d="M1539.32,-1623.92C1477.27,-1583.65 1311.42,-1476.03 1241.85,-1430.88"/>
<polygon fill="black" stroke="black" points="1243.37,-1427.7 1233.08,-1425.19 1239.56,-1433.57 1243.37,-1427.7"/>
</g>
<!-- Plane.cpp -->
<g id="node38" class="node"><title>Plane.cpp</title>
<ellipse fill="none" stroke="black" cx="652.672" cy="-2153.83" rx="45.4919" ry="18"/>
<text text-anchor="middle" x="652.672" y="-2150.13" font-family="Times,serif" font-size="14.00">Plane.cpp</text>
</g>
<!-- Plane.cpp&#45;&gt;Plane.h -->
<g id="edge58" class="edge"><title>Plane.cpp&#45;&gt;Plane.h</title>
<path fill="none" stroke="black" d="M655.995,-2135.74C669.628,-2061.53 721.321,-1780.15 737.897,-1689.92"/>
<polygon fill="black" stroke="black" points="741.375,-1690.36 739.739,-1679.89 734.49,-1689.09 741.375,-1690.36"/>
</g>
<!-- ShadeRec.cpp -->
<g id="node39" class="node"><title>ShadeRec.cpp</title>
<ellipse fill="none" stroke="black" cx="261.296" cy="-989.552" rx="61.1893" ry="18"/>
<text text-anchor="middle" x="261.296" y="-985.852" font-family="Times,serif" font-size="14.00">ShadeRec.cpp</text>
</g>
<!-- ShadeRec.cpp&#45;&gt;ShadeRec.h -->
<g id="edge65" class="edge"><title>ShadeRec.cpp&#45;&gt;ShadeRec.h</title>
<path fill="none" stroke="black" d="M309.852,-1000.5C392.354,-1019.1 559.3,-1056.74 645.367,-1076.15"/>
<polygon fill="black" stroke="black" points="644.674,-1079.58 655.199,-1078.37 646.214,-1072.75 644.674,-1079.58"/>
</g>
<!-- Pinhole.cpp -->
<g id="node40" class="node"><title>Pinhole.cpp</title>
<ellipse fill="none" stroke="black" cx="1612.25" cy="-1387.79" rx="52.7911" ry="18"/>
<text text-anchor="middle" x="1612.25" y="-1384.09" font-family="Times,serif" font-size="14.00">Pinhole.cpp</text>
</g>
<!-- Pinhole.cpp&#45;&gt;Pinhole.h -->
<g id="edge69" class="edge"><title>Pinhole.cpp&#45;&gt;Pinhole.h</title>
<path fill="none" stroke="black" d="M1579.03,-1373.69C1508.91,-1343.91 1346.03,-1274.74 1270.38,-1242.62"/>
<polygon fill="black" stroke="black" points="1271.73,-1239.39 1261.16,-1238.7 1269,-1245.83 1271.73,-1239.39"/>
</g>
<!-- Sphere.cpp -->
<g id="node41" class="node"><title>Sphere.cpp</title>
<ellipse fill="none" stroke="black" cx="73.962" cy="-1824.77" rx="50.0912" ry="18"/>
<text text-anchor="middle" x="73.962" y="-1821.07" font-family="Times,serif" font-size="14.00">Sphere.cpp</text>
</g>
<!-- Sphere.cpp&#45;&gt;Sphere.h -->
<g id="edge79" class="edge"><title>Sphere.cpp&#45;&gt;Sphere.h</title>
<path fill="none" stroke="black" d="M94.6114,-1808.07C150.451,-1762.9 304.509,-1638.3 368.154,-1586.82"/>
<polygon fill="black" stroke="black" points="370.589,-1589.35 376.163,-1580.34 366.187,-1583.91 370.589,-1589.35"/>
</g>
<!-- World.cpp -->
<g id="node42" class="node"><title>World.cpp</title>
<ellipse fill="none" stroke="black" cx="1069.74" cy="-479.955" rx="48.9926" ry="18"/>
<text text-anchor="middle" x="1069.74" y="-476.255" font-family="Times,serif" font-size="14.00">World.cpp</text>
</g>
<!-- World.cpp&#45;&gt;World.h -->
<g id="edge81" class="edge"><title>World.cpp&#45;&gt;World.h</title>
<path fill="none" stroke="black" d="M1066.52,-498.084C1054.04,-568.185 1008.88,-821.827 993.709,-907.068"/>
<polygon fill="black" stroke="black" points="990.239,-906.594 991.932,-917.053 997.13,-907.821 990.239,-906.594"/>
</g>
<!-- Material.cpp -->
<g id="node43" class="node"><title>Material.cpp</title>
<ellipse fill="none" stroke="black" cx="1283.62" cy="-1761.94" rx="55.7903" ry="18"/>
<text text-anchor="middle" x="1283.62" y="-1758.24" font-family="Times,serif" font-size="14.00">Material.cpp</text>
</g>
<!-- Material.cpp&#45;&gt;Material.h -->
<g id="edge83" class="edge"><title>Material.cpp&#45;&gt;Material.h</title>
<path fill="none" stroke="black" d="M1271.11,-1744.19C1224.55,-1678.14 1061.22,-1446.42 1006.25,-1368.44"/>
<polygon fill="black" stroke="black" points="1009.02,-1366.28 1000.39,-1360.12 1003.29,-1370.31 1009.02,-1366.28"/>
</g>
</g>
</svg>
