<?xml version="1.0" encoding="UTF-8" standalone="no"?>
<!DOCTYPE svg PUBLIC "-//W3C//DTD SVG 1.1//EN"
 "http://www.w3.org/Graphics/SVG/1.1/DTD/svg11.dtd">
<!-- Generated by graphviz version 2.36.0 (20140111.2315)
 -->
<!-- Title: cluster_0 Pages: 1 -->
<svg width="513pt" height="681pt"
 viewBox="0.00 0.00 512.75 681.15" xmlns="http://www.w3.org/2000/svg" xmlns:xlink="http://www.w3.org/1999/xlink">
<g id="graph0" class="graph" transform="scale(1 1) rotate(0) translate(4 677.155)">
<title>cluster_0</title>
<polygon fill="white" stroke="none" points="-4,4 -4,-677.155 508.747,-677.155 508.747,4 -4,4"/>
<!-- World.h -->
<g id="node1" class="node"><title>World.h</title>
<ellipse fill="none" stroke="black" cx="226.538" cy="-305.488" rx="40.0939" ry="18"/>
<text text-anchor="middle" x="226.538" y="-301.788" font-family="Times,serif" font-size="14.00">World.h</text>
</g>
<!-- Directional.h -->
<g id="node2" class="node"><title>Directional.h</title>
<ellipse fill="none" stroke="black" cx="447.552" cy="-144.831" rx="57.3905" ry="18"/>
<text text-anchor="middle" x="447.552" y="-141.131" font-family="Times,serif" font-size="14.00">Directional.h</text>
</g>
<!-- World.h&#45;&gt;Directional.h -->
<g id="edge1" class="edge"><title>World.h&#45;&gt;Directional.h</title>
<path fill="none" stroke="black" d="M253.199,-291.549C296.424,-263.902 380.992,-202.524 422.896,-168.481"/>
<polygon fill="black" stroke="black" points="425.197,-171.119 430.683,-162.055 420.742,-165.72 425.197,-171.119"/>
</g>
<!-- Pinhole.h -->
<g id="node3" class="node"><title>Pinhole.h</title>
<ellipse fill="none" stroke="black" cx="72.355" cy="-18" rx="44.393" ry="18"/>
<text text-anchor="middle" x="72.355" y="-14.3" font-family="Times,serif" font-size="14.00">Pinhole.h</text>
</g>
<!-- World.h&#45;&gt;Pinhole.h -->
<g id="edge2" class="edge"><title>World.h&#45;&gt;Pinhole.h</title>
<path fill="none" stroke="black" d="M220.749,-287.63C199.211,-238.495 126.012,-101.404 90.9982,-43.881"/>
<polygon fill="black" stroke="black" points="93.9608,-42.017 85.7203,-35.3577 88.0094,-45.7023 93.9608,-42.017"/>
</g>
<!-- GeometricObject.h -->
<g id="node4" class="node"><title>GeometricObject.h</title>
<ellipse fill="none" stroke="black" cx="78.643" cy="-588.284" rx="78.7863" ry="18"/>
<text text-anchor="middle" x="78.643" y="-584.584" font-family="Times,serif" font-size="14.00">GeometricObject.h</text>
</g>
<!-- World.h&#45;&gt;GeometricObject.h -->
<g id="edge3" class="edge"><title>World.h&#45;&gt;GeometricObject.h</title>
<path fill="none" stroke="black" d="M217.287,-323.178C192.239,-371.073 122.972,-503.521 92.8924,-561.037"/>
<polygon fill="black" stroke="black" points="89.6144,-559.753 88.0816,-570.236 95.8174,-562.997 89.6144,-559.753"/>
</g>
<!-- Directional.h&#45;&gt;World.h -->
<g id="edge4" class="edge"><title>Directional.h&#45;&gt;World.h</title>
<path fill="none" stroke="black" d="M418.197,-160.501C373.964,-189.083 291.225,-249.229 250.435,-282.455"/>
<polygon fill="black" stroke="black" points="248.098,-279.846 242.628,-288.92 252.563,-285.237 248.098,-279.846"/>
</g>
<!-- Pinhole.h&#45;&gt;World.h -->
<g id="edge5" class="edge"><title>Pinhole.h&#45;&gt;World.h</title>
<path fill="none" stroke="black" d="M78.1444,-35.8581C99.6823,-84.9923 172.881,-222.083 207.895,-279.607"/>
<polygon fill="black" stroke="black" points="204.933,-281.471 213.173,-288.13 210.884,-277.785 204.933,-281.471"/>
</g>
<!-- Material.h -->
<g id="node5" class="node"><title>Material.h</title>
<ellipse fill="none" stroke="black" cx="284.058" cy="-655.155" rx="48.1917" ry="18"/>
<text text-anchor="middle" x="284.058" y="-651.455" font-family="Times,serif" font-size="14.00">Material.h</text>
</g>
<!-- GeometricObject.h&#45;&gt;Material.h -->
<g id="edge6" class="edge"><title>GeometricObject.h&#45;&gt;Material.h</title>
<path fill="none" stroke="black" d="M123.977,-603.042C157.85,-614.069 203.982,-629.087 238.023,-640.169"/>
<polygon fill="black" stroke="black" points="237.135,-643.56 247.727,-643.328 239.302,-636.904 237.135,-643.56"/>
</g>
<!-- Material.h&#45;&gt;World.h -->
<g id="edge7" class="edge"><title>Material.h&#45;&gt;World.h</title>
<path fill="none" stroke="black" d="M281.047,-636.847C271.612,-579.492 242.579,-402.998 231.191,-333.769"/>
<polygon fill="black" stroke="black" points="234.597,-332.913 229.52,-323.614 227.69,-334.049 234.597,-332.913"/>
</g>
</g>
</svg>
<?xml version="1.0" encoding="UTF-8" standalone="no"?>
<!DOCTYPE svg PUBLIC "-//W3C//DTD SVG 1.1//EN"
 "http://www.w3.org/Graphics/SVG/1.1/DTD/svg11.dtd">
<!-- Generated by graphviz version 2.36.0 (20140111.2315)
 -->
<!-- Title: scc_map Pages: 1 -->
<svg width="94pt" height="44pt"
 viewBox="0.00 0.00 93.79 44.00" xmlns="http://www.w3.org/2000/svg" xmlns:xlink="http://www.w3.org/1999/xlink">
<g id="graph0" class="graph" transform="scale(1 1) rotate(0) translate(4 40)">
<title>scc_map</title>
<polygon fill="white" stroke="none" points="-4,4 -4,-40 89.7924,-40 89.7924,4 -4,4"/>
<!-- cluster_0 -->
<g id="node1" class="node"><title>cluster_0</title>
<ellipse fill="none" stroke="black" cx="42.8962" cy="-18" rx="42.7926" ry="18"/>
<text text-anchor="middle" x="42.8962" y="-14.3" font-family="Times,serif" font-size="14.00">cluster_0</text>
</g>
</g>
</svg>
